<svg width="1252" height="432" viewBox="0 0 1252 432" fill="none" xmlns="http://www.w3.org/2000/svg">
<mask id="path-1-inside-1_203_230" fill="white">
<path d="M143.541 150.218L147.566 148.727L152.281 149.385L157.29 153.448L160.942 154.875L164.922 156.129L167.839 152.08L167.85 146.84L161.947 143.876L159.437 141.428L159.504 134.274L157.537 129.237L155.682 126.445L151.453 125.112L149.587 121.488L136.381 121.742L125.2 143.334L127.111 144.212L131.317 143.882L136.123 145.12L137.141 147.097L137.661 148.917L138.52 151.396L136.293 157.594L135.05 157.202L136.282 150.69L134.992 146.972L128.208 145.938L126.738 147.131L130.04 147.067L132.935 147.428L134.857 149.137L135.795 151.365L134.88 150.801L132.324 151.099L130.572 149.719L130.967 148.463L127.338 148.7L125.517 148.402L127.044 151.367L131.115 153.202L133.433 153.656L131.375 154.112L126.807 152.12L123.618 148.355L121.775 152.466L118.893 165.082L120.059 177.869L128.551 189.102L127.534 193.197L126.664 202.031L106.629 210.069L105.521 213.584L101.575 214.824L102.129 219.139L98.3416 219.877L98.9637 223.109L94.9387 224.6L96.6344 221.823L94.1805 217.461L94.3042 208.392L97.7185 204.501L97.492 200.013L100.352 197.879L100.046 187.57L101.685 180.635L100.317 177.167L100.678 173.417L104.567 168.019L106.116 160.503L112.391 154.477L112.809 148.812L119.332 142.864L120.225 135.694L126.997 129.824L128.738 124.301L135.103 118.855L146.658 112.561L155.568 112.057L165.755 114.44L175.31 118.831L183.825 125.655L189.637 134.11L193.098 145.689L191.652 160.689L185.265 182.689L179.738 207.167L177.003 224.521L183.427 241.449L189.872 247.897L194.983 253.372L197.799 260.055L200.625 291.858L199.95 326.973L194.727 343.543L78.0611 306.773L85.0021 289.088L102.368 273.034L123.174 254.751L140.933 249.585L159.42 249.063L167.188 249.579L176.539 251.146L169.328 248.873L162.461 248.09L140.575 247.264L168.375 245.813L182.116 248.212L172.222 243.162L145.651 244.171L126.453 253.025L124.124 251.739L101.023 240.87L92.6781 234.376L89.0818 224.962L86.3315 229.339L90.4703 236.164L104.322 246.878L121.678 254.28L100.378 272.406L83.0007 287.63L73.8323 305.44L39.5041 294.621L18.7013 284.675L12.6598 269.6L22.5299 260.843L33.5424 257.138L43.2092 251.629L46.499 244.661L52.8984 241.71L55.6678 232.923L62.3268 224.81L68.4324 224.526L72.7317 218.705L81.9915 213.62L95.1296 208.377L94.7122 220.113L92.6544 220.568L91.7612 221.667L94.8036 232.838L102.481 238.846L128.149 250.247L147.731 239.307L147.844 235.479L149.868 232.528L149.845 230.865L151.054 228.762L151.111 226.848L153.383 223.976L152.693 221.827L154.717 218.877L154.118 217.308L155.825 215.362L154.31 213.228L155.779 212.036L153.846 209.494L153.077 207.596L154.773 204.818L154.399 201.665L150.046 203.329L139.893 203.441L132.633 197.841L127.534 193.197L128.551 189.102L143.25 189.319L149.05 184.799L152.69 173.25L163.566 165.638L166.008 163.095L166.302 160.428L163.543 157.902L159.585 158.311L158.59 157.998L158.172 157.59L154.825 160.399L151.942 160.87L147.623 158.957L151.852 160.29L154.158 159.913L157.595 157.684L157.426 157.354L155.436 156.727L154.373 157.496L152.304 157.12L151.049 155.897L151.275 154.312L146.978 154.062L150.02 153.088L153.909 153.762L156.917 156.366L153.977 152.679L148.516 151.786L144.83 153.937L138.115 170.036L138.454 170.695L139.777 170.836L140.591 169.989L140.817 168.404L141.416 169.973L140.942 171.479L139.89 173.08L138.239 173.111L136.589 173.143L135.56 173.371L134.341 173.332L133.084 176.455L141.688 177.787L139.393 178.995L132.937 177.788L127.532 174.981L126.266 172.926L127.261 173.239L132.835 176.376L134.093 173.254L133.655 172.908L132.778 172.218L131.862 171.654L131.433 170.414L130.505 169.018L130.403 167.606L132.156 168.986L133.615 166.962L133.23 169.049L134.983 170.429L137.369 169.801L143.541 150.218Z"/>
</mask>
<path d="M143.541 150.218L147.566 148.727L152.281 149.385L157.29 153.448L160.942 154.875L164.922 156.129L167.839 152.08L167.85 146.84L161.947 143.876L159.437 141.428L159.504 134.274L157.537 129.237L155.682 126.445L151.453 125.112L149.587 121.488L136.381 121.742L125.2 143.334L127.111 144.212L131.317 143.882L136.123 145.12L137.141 147.097L137.661 148.917L138.52 151.396L136.293 157.594L135.05 157.202L136.282 150.69L134.992 146.972L128.208 145.938L126.738 147.131L130.04 147.067L132.935 147.428L134.857 149.137L135.795 151.365L134.88 150.801L132.324 151.099L130.572 149.719L130.967 148.463L127.338 148.7L125.517 148.402L127.044 151.367L131.115 153.202L133.433 153.656L131.375 154.112L126.807 152.12L123.618 148.355L121.775 152.466L118.893 165.082L120.059 177.869L128.551 189.102L127.534 193.197L126.664 202.031L106.629 210.069L105.521 213.584L101.575 214.824L102.129 219.139L98.3416 219.877L98.9637 223.109L94.9387 224.6L96.6344 221.823L94.1805 217.461L94.3042 208.392L97.7185 204.501L97.492 200.013L100.352 197.879L100.046 187.57L101.685 180.635L100.317 177.167L100.678 173.417L104.567 168.019L106.116 160.503L112.391 154.477L112.809 148.812L119.332 142.864L120.225 135.694L126.997 129.824L128.738 124.301L135.103 118.855L146.658 112.561L155.568 112.057L165.755 114.44L175.31 118.831L183.825 125.655L189.637 134.11L193.098 145.689L191.652 160.689L185.265 182.689L179.738 207.167L177.003 224.521L183.427 241.449L189.872 247.897L194.983 253.372L197.799 260.055L200.625 291.858L199.95 326.973L194.727 343.543L78.0611 306.773L85.0021 289.088L102.368 273.034L123.174 254.751L140.933 249.585L159.42 249.063L167.188 249.579L176.539 251.146L169.328 248.873L162.461 248.09L140.575 247.264L168.375 245.813L182.116 248.212L172.222 243.162L145.651 244.171L126.453 253.025L124.124 251.739L101.023 240.87L92.6781 234.376L89.0818 224.962L86.3315 229.339L90.4703 236.164L104.322 246.878L121.678 254.28L100.378 272.406L83.0007 287.63L73.8323 305.44L39.5041 294.621L18.7013 284.675L12.6598 269.6L22.5299 260.843L33.5424 257.138L43.2092 251.629L46.499 244.661L52.8984 241.71L55.6678 232.923L62.3268 224.81L68.4324 224.526L72.7317 218.705L81.9915 213.62L95.1296 208.377L94.7122 220.113L92.6544 220.568L91.7612 221.667L94.8036 232.838L102.481 238.846L128.149 250.247L147.731 239.307L147.844 235.479L149.868 232.528L149.845 230.865L151.054 228.762L151.111 226.848L153.383 223.976L152.693 221.827L154.717 218.877L154.118 217.308L155.825 215.362L154.31 213.228L155.779 212.036L153.846 209.494L153.077 207.596L154.773 204.818L154.399 201.665L150.046 203.329L139.893 203.441L132.633 197.841L127.534 193.197L128.551 189.102L143.25 189.319L149.05 184.799L152.69 173.25L163.566 165.638L166.008 163.095L166.302 160.428L163.543 157.902L159.585 158.311L158.59 157.998L158.172 157.59L154.825 160.399L151.942 160.87L147.623 158.957L151.852 160.29L154.158 159.913L157.595 157.684L157.426 157.354L155.436 156.727L154.373 157.496L152.304 157.12L151.049 155.897L151.275 154.312L146.978 154.062L150.02 153.088L153.909 153.762L156.917 156.366L153.977 152.679L148.516 151.786L144.83 153.937L138.115 170.036L138.454 170.695L139.777 170.836L140.591 169.989L140.817 168.404L141.416 169.973L140.942 171.479L139.89 173.08L138.239 173.111L136.589 173.143L135.56 173.371L134.341 173.332L133.084 176.455L141.688 177.787L139.393 178.995L132.937 177.788L127.532 174.981L126.266 172.926L127.261 173.239L132.835 176.376L134.093 173.254L133.655 172.908L132.778 172.218L131.862 171.654L131.433 170.414L130.505 169.018L130.403 167.606L132.156 168.986L133.615 166.962L133.23 169.049L134.983 170.429L137.369 169.801L143.541 150.218Z" fill="#4469AE" fill-opacity="0.8"/>
<path d="M127.534 193.197L128.019 193.318L129.036 189.222L128.551 189.102L128.066 188.981L127.048 193.077L127.534 193.197ZM143.541 150.218L143.193 149.281L142.734 149.451L142.587 149.918L143.541 150.218ZM147.566 148.727L147.704 147.736L147.454 147.702L147.218 147.789L147.566 148.727ZM152.281 149.385L152.91 148.608L152.694 148.433L152.419 148.394L152.281 149.385ZM137.369 169.801L137.623 170.768L138.157 170.628L138.322 170.102L137.369 169.801ZM144.83 153.937L144.326 153.073L144.036 153.242L143.907 153.552L144.83 153.937ZM148.516 151.786L148.677 150.799L148.322 150.741L148.012 150.922L148.516 151.786ZM146.978 154.062L146.673 153.109L146.92 155.06L146.978 154.062ZM157.29 153.448L156.66 154.224L156.781 154.322L156.926 154.379L157.29 153.448ZM153.977 152.679L154.759 152.056L154.518 151.755L154.138 151.693L153.977 152.679ZM156.917 156.366L156.262 157.122L157.699 155.743L156.917 156.366ZM147.623 158.957L147.924 158.003L147.218 159.871L147.623 158.957ZM153.909 153.762L154.564 153.006L154.354 152.824L154.08 152.777L153.909 153.762ZM155.436 156.727L155.736 155.773L155.257 155.622L154.85 155.917L155.436 156.727ZM150.02 153.088L150.19 152.103L149.948 152.061L149.715 152.136L150.02 153.088ZM151.275 154.312L152.265 154.453L152.418 153.377L151.333 153.313L151.275 154.312ZM151.049 155.897L150.059 155.755L149.987 156.258L150.351 156.613L151.049 155.897ZM154.373 157.496L154.194 158.48L154.614 158.556L154.959 158.306L154.373 157.496ZM152.304 157.12L151.606 157.836L151.824 158.049L152.125 158.104L152.304 157.12ZM160.942 154.875L160.578 155.806L160.609 155.818L160.641 155.828L160.942 154.875ZM159.585 158.311L159.285 159.265L159.482 159.327L159.688 159.306L159.585 158.311ZM163.543 157.902L164.218 157.165L163.887 156.862L163.44 156.908L163.543 157.902ZM164.922 156.129L164.621 157.083L165.311 157.3L165.733 156.714L164.922 156.129ZM167.85 146.84L168.85 146.842L168.851 146.224L168.299 145.946L167.85 146.84ZM166.302 160.428L167.296 160.537L167.351 160.033L166.977 159.69L166.302 160.428ZM191.652 160.689L192.612 160.968L192.638 160.878L192.647 160.785L191.652 160.689ZM167.839 152.08L168.65 152.665L168.838 152.404L168.839 152.082L167.839 152.08ZM185.265 182.689L184.305 182.41L184.296 182.439L184.29 182.468L185.265 182.689ZM189.637 134.11L190.595 133.824L190.55 133.673L190.461 133.544L189.637 134.11ZM193.098 145.689L194.093 145.785L194.112 145.59L194.056 145.403L193.098 145.689ZM161.947 143.876L161.249 144.592L161.36 144.7L161.499 144.769L161.947 143.876ZM159.437 141.428L158.437 141.419L158.433 141.846L158.739 142.144L159.437 141.428ZM159.504 134.274L160.504 134.283L160.506 134.09L160.436 133.91L159.504 134.274ZM183.825 125.655L184.649 125.088L184.565 124.966L184.45 124.874L183.825 125.655ZM157.537 129.237L158.468 128.873L158.429 128.773L158.37 128.684L157.537 129.237ZM175.31 118.831L175.935 118.051L175.839 117.974L175.728 117.922L175.31 118.831ZM155.682 126.445L156.515 125.892L156.32 125.597L155.983 125.491L155.682 126.445ZM151.453 125.112L150.564 125.57L150.755 125.94L151.153 126.066L151.453 125.112ZM149.587 121.488L150.476 121.03L150.191 120.476L149.568 120.488L149.587 121.488ZM165.755 114.44L166.173 113.531L166.081 113.489L165.983 113.466L165.755 114.44ZM155.568 112.057L155.796 111.083L155.655 111.05L155.511 111.058L155.568 112.057ZM146.658 112.561L146.602 111.562L146.377 111.575L146.18 111.683L146.658 112.561ZM136.381 121.742L136.362 120.742L135.767 120.753L135.493 121.282L136.381 121.742ZM135.103 118.855L134.625 117.977L134.533 118.027L134.453 118.095L135.103 118.855ZM128.738 124.301L128.088 123.541L127.87 123.727L127.784 124L128.738 124.301ZM125.2 143.334L124.312 142.874L123.83 143.805L124.783 144.243L125.2 143.334ZM126.997 129.824L127.652 130.58L127.866 130.395L127.951 130.125L126.997 129.824ZM120.225 135.694L119.57 134.938L119.28 135.189L119.232 135.57L120.225 135.694ZM119.332 142.864L120.006 143.603L120.279 143.355L120.324 142.988L119.332 142.864ZM112.809 148.812L112.135 148.073L111.841 148.342L111.811 148.739L112.809 148.812ZM127.111 144.212L126.694 145.121L126.93 145.23L127.19 145.209L127.111 144.212ZM127.338 148.7L127.176 149.686L127.289 149.705L127.403 149.697L127.338 148.7ZM136.123 145.12L137.012 144.663L136.807 144.264L136.372 144.152L136.123 145.12ZM128.208 145.938L128.359 144.949L127.922 144.883L127.578 145.161L128.208 145.938ZM131.317 143.882L131.567 142.913L131.405 142.872L131.239 142.885L131.317 143.882ZM136.282 150.69L137.264 150.876L137.314 150.615L137.226 150.363L136.282 150.69ZM137.141 147.097L138.102 146.822L138.075 146.727L138.03 146.639L137.141 147.097ZM134.992 146.972L135.937 146.644L135.739 146.074L135.143 145.983L134.992 146.972ZM126.738 147.131L126.108 146.354L123.851 148.186L126.758 148.13L126.738 147.131ZM135.795 151.365L135.271 152.216L137.93 153.856L136.717 150.977L135.795 151.365ZM132.935 147.428L133.599 146.68L133.367 146.474L133.058 146.435L132.935 147.428ZM132.324 151.099L131.706 151.885L132.03 152.14L132.44 152.092L132.324 151.099ZM134.857 149.137L135.778 148.749L135.691 148.541L135.521 148.39L134.857 149.137ZM130.04 147.067L130.163 146.075L130.092 146.066L130.021 146.067L130.04 147.067ZM130.967 148.463L131.921 148.764L132.36 147.371L130.902 147.466L130.967 148.463ZM130.572 149.719L129.618 149.418L129.41 150.077L129.953 150.504L130.572 149.719ZM134.88 150.801L135.404 149.949L135.109 149.767L134.763 149.807L134.88 150.801ZM121.775 152.466L120.863 152.057L120.822 152.147L120.8 152.244L121.775 152.466ZM123.618 148.355L124.381 147.709L123.355 146.497L122.705 147.946L123.618 148.355ZM112.391 154.477L113.083 155.198L113.36 154.932L113.388 154.55L112.391 154.477ZM118.893 165.082L117.918 164.859L117.883 165.014L117.897 165.173L118.893 165.082ZM128.551 189.102L127.753 189.705L128.048 190.095L128.536 190.102L128.551 189.102ZM106.116 160.503L105.423 159.782L105.199 159.997L105.136 160.301L106.116 160.503ZM104.567 168.019L105.379 168.604L105.504 168.43L105.547 168.221L104.567 168.019ZM100.678 173.417L99.867 172.833L99.709 173.052L99.683 173.321L100.678 173.417ZM101.685 180.635L102.658 180.865L102.731 180.559L102.615 180.268L101.685 180.635ZM100.317 177.167L99.3215 177.071L99.2984 177.311L99.3867 177.535L100.317 177.167ZM100.046 187.57L99.0732 187.34L99.0429 187.468L99.0468 187.6L100.046 187.57ZM120.059 177.869L119.063 177.96L119.089 178.245L119.261 178.472L120.059 177.869ZM166.008 163.095L166.729 163.788L166.965 163.543L167.002 163.205L166.008 163.095ZM163.566 165.638L164.139 166.457L164.22 166.401L164.287 166.33L163.566 165.638ZM152.69 173.25L152.116 172.43L151.838 172.625L151.736 172.949L152.69 173.25ZM149.05 184.799L149.664 185.587L149.91 185.396L150.003 185.099L149.05 184.799ZM179.738 207.167L178.763 206.946L178.755 206.979L178.75 207.011L179.738 207.167ZM143.25 189.319L143.235 190.318L143.587 190.324L143.864 190.107L143.25 189.319ZM127.534 193.197L128.207 192.458L126.734 191.117L126.538 193.099L127.534 193.197ZM138.115 170.036L137.192 169.651L137.013 170.08L137.226 170.494L138.115 170.036ZM138.454 170.695L137.565 171.153L137.812 171.632L138.348 171.69L138.454 170.695ZM132.778 172.218L133.397 171.433L133.352 171.397L133.303 171.367L132.778 172.218ZM132.937 177.788L132.476 178.676L132.608 178.744L132.753 178.771L132.937 177.788ZM136.589 173.143L136.569 172.143L136.47 172.145L136.373 172.167L136.589 173.143ZM138.239 173.111L138.22 172.112V172.112L138.239 173.111ZM139.89 173.08L139.909 174.08L140.437 174.069L140.726 173.629L139.89 173.08ZM140.942 171.479L141.777 172.028L141.854 171.912L141.895 171.78L140.942 171.479ZM140.817 168.404L141.751 168.047L140.372 164.438L139.827 168.263L140.817 168.404ZM141.416 169.973L142.37 170.273L142.475 169.941L142.351 169.616L141.416 169.973ZM139.777 170.836L139.671 171.83L140.159 171.882L140.498 171.529L139.777 170.836ZM140.591 169.989L141.312 170.681L141.536 170.449L141.581 170.13L140.591 169.989ZM131.862 171.654L130.918 171.981L131.034 172.318L131.338 172.505L131.862 171.654ZM130.403 167.606L131.022 166.82L129.243 165.419L129.406 167.678L130.403 167.606ZM131.433 170.414L132.377 170.087L132.336 169.967L132.266 169.861L131.433 170.414ZM132.156 168.986L131.537 169.772L132.357 170.418L132.967 169.571L132.156 168.986ZM130.505 169.018L129.508 169.09L129.527 169.352L129.672 169.571L130.505 169.018ZM134.983 170.429L134.364 171.215L134.756 171.523L135.238 171.396L134.983 170.429ZM133.615 166.962L134.598 167.143L132.803 166.377L133.615 166.962ZM133.23 169.049L132.247 168.868L132.138 169.461L132.612 169.834L133.23 169.049ZM157.426 157.354L158.315 156.897L158.124 156.526L157.726 156.401L157.426 157.354ZM158.59 157.998L157.892 158.714L158.063 158.88L158.29 158.951L158.59 157.998ZM151.942 160.87L151.537 161.785L151.81 161.905L152.104 161.857L151.942 160.87ZM154.825 160.399L154.987 161.386L155.258 161.341L155.468 161.165L154.825 160.399ZM151.852 160.29L151.551 161.243L151.778 161.315L152.013 161.277L151.852 160.29ZM154.158 159.913L154.32 160.9L154.527 160.866L154.702 160.752L154.158 159.913ZM158.172 157.59L158.87 156.874L158.222 156.242L157.529 156.824L158.172 157.59ZM157.595 157.684L158.139 158.523L158.899 158.031L158.485 157.226L157.595 157.684ZM132.633 197.841L131.96 198.58L131.99 198.607L132.022 198.632L132.633 197.841ZM139.893 203.441L139.282 204.232L139.557 204.444L139.904 204.441L139.893 203.441ZM150.046 203.329L150.057 204.329L150.236 204.327L150.403 204.263L150.046 203.329ZM154.399 201.665L155.392 201.547L155.241 200.272L154.042 200.73L154.399 201.665ZM154.773 204.818L155.626 205.339L155.806 205.044L155.766 204.701L154.773 204.818ZM153.077 207.596L152.223 207.075L151.961 207.505L152.15 207.971L153.077 207.596ZM153.846 209.494L152.919 209.87L152.969 209.993L153.05 210.1L153.846 209.494ZM155.779 212.036L156.41 212.812L157.162 212.201L156.575 211.43L155.779 212.036ZM154.31 213.228L153.679 212.452L152.951 213.043L153.494 213.807L154.31 213.228ZM155.825 215.362L156.577 216.021L157.098 215.427L156.64 214.783L155.825 215.362ZM154.118 217.308L153.366 216.648L152.968 217.102L153.184 217.665L154.118 217.308ZM154.717 218.877L155.542 219.442L155.838 219.01L155.651 218.52L154.717 218.877ZM177.003 224.521L176.015 224.365L175.974 224.627L176.068 224.876L177.003 224.521ZM183.427 241.449L182.492 241.804L182.568 242.005L182.72 242.156L183.427 241.449ZM152.693 221.827L151.869 221.261L151.591 221.666L151.741 222.133L152.693 221.827ZM153.383 223.976L154.167 224.597L154.498 224.179L154.335 223.671L153.383 223.976ZM151.111 226.848L150.327 226.228L150.121 226.488L150.111 226.819L151.111 226.848ZM151.054 228.762L151.921 229.261L152.047 229.043L152.054 228.792L151.054 228.762ZM149.845 230.865L148.978 230.367L148.841 230.604L148.845 230.879L149.845 230.865ZM149.868 232.528L150.692 233.094L150.872 232.832L150.867 232.515L149.868 232.528ZM189.872 247.897L190.603 247.214L190.591 247.202L190.579 247.19L189.872 247.897ZM172.222 243.162L172.677 242.271L172.444 242.153L172.184 242.163L172.222 243.162ZM194.983 253.372L195.905 252.983L195.836 252.819L195.714 252.689L194.983 253.372ZM182.116 248.212L181.944 249.197L182.57 247.321L182.116 248.212ZM197.799 260.055L198.795 259.967L198.781 259.811L198.721 259.667L197.799 260.055ZM140.575 247.264L140.522 246.265L140.537 248.263L140.575 247.264ZM147.844 235.479L147.019 234.913L146.853 235.155L146.844 235.449L147.844 235.479ZM147.731 239.307L148.219 240.18L148.714 239.903L148.731 239.337L147.731 239.307ZM91.7612 221.667L90.9853 221.036L90.6615 221.434L90.7964 221.93L91.7612 221.667ZM145.651 244.171L145.613 243.172L145.414 243.18L145.232 243.263L145.651 244.171ZM126.453 253.025L125.97 253.9L126.412 254.145L126.872 253.933L126.453 253.025ZM128.149 250.247L127.743 251.161L128.2 251.364L128.636 251.12L128.149 250.247ZM124.124 251.739L124.607 250.863L124.579 250.848L124.549 250.834L124.124 251.739ZM101.023 240.87L100.409 241.659L100.497 241.728L100.597 241.775L101.023 240.87ZM102.481 238.846L101.865 239.633L101.962 239.709L102.075 239.76L102.481 238.846ZM89.0818 224.962L90.0159 224.606L89.3009 222.734L88.2351 224.43L89.0818 224.962ZM92.6781 234.376L91.7439 234.733L91.8436 234.994L92.0639 235.165L92.6781 234.376ZM94.8036 232.838L93.8388 233.101L93.926 233.421L94.1874 233.625L94.8036 232.838ZM86.3315 229.339L85.4848 228.807L85.1563 229.33L85.4765 229.858L86.3315 229.339ZM92.6544 220.568L92.4383 219.592L92.0982 219.667L91.8785 219.938L92.6544 220.568ZM68.4324 224.526L68.4788 225.525L68.9541 225.503L69.2368 225.121L68.4324 224.526ZM94.7122 220.113L94.9282 221.089L95.684 220.922L95.7115 220.149L94.7122 220.113ZM95.1296 208.377L96.1289 208.412L96.1835 206.879L94.7589 207.448L95.1296 208.377ZM126.664 202.031L127.036 202.959L127.599 202.733L127.659 202.129L126.664 202.031ZM106.629 210.069L106.256 209.141L105.817 209.317L105.675 209.768L106.629 210.069ZM100.352 197.879L100.951 198.68L101.367 198.369L101.352 197.849L100.352 197.879ZM97.492 200.013L96.894 199.212L96.4664 199.531L96.4933 200.064L97.492 200.013ZM97.7185 204.501L98.4702 205.16L98.7377 204.855L98.7172 204.45L97.7185 204.501ZM94.3042 208.392L93.5525 207.733L93.3093 208.01L93.3043 208.379L94.3042 208.392ZM105.521 213.584L105.821 214.538L106.318 214.381L106.475 213.884L105.521 213.584ZM101.575 214.824L101.275 213.87L100.476 214.121L100.583 214.951L101.575 214.824ZM102.129 219.139L102.321 220.12L103.241 219.941L103.121 219.011L102.129 219.139ZM98.3416 219.877L98.1503 218.895L97.1711 219.086L97.3596 220.066L98.3416 219.877ZM94.9387 224.6L94.0852 224.079L92.583 226.54L95.2861 225.538L94.9387 224.6ZM94.1805 217.461L93.1806 217.448L93.1769 217.717L93.309 217.952L94.1805 217.461ZM96.6344 221.823L97.4879 222.344L97.7935 221.844L97.506 221.333L96.6344 221.823ZM98.9637 223.109L99.3112 224.047L100.106 223.752L99.9457 222.92L98.9637 223.109ZM81.9915 213.62L81.6209 212.691L81.5639 212.714L81.5101 212.743L81.9915 213.62ZM72.7317 218.705L72.2503 217.829L72.0578 217.935L71.9273 218.111L72.7317 218.705ZM133.433 153.656L133.649 154.633L133.625 152.675L133.433 153.656ZM125.517 148.402L125.679 147.415L123.72 147.095L124.628 148.86L125.517 148.402ZM131.375 154.112L130.975 155.029L131.273 155.159L131.591 155.088L131.375 154.112ZM126.807 152.12L126.044 152.766L126.194 152.944L126.407 153.037L126.807 152.12ZM131.115 153.202L130.704 154.114L130.809 154.161L130.922 154.183L131.115 153.202ZM127.044 151.367L126.155 151.825L126.315 152.135L126.633 152.279L127.044 151.367ZM135.56 173.371L135.528 174.37L135.653 174.374L135.776 174.347L135.56 173.371ZM134.341 173.332L134.373 172.332L133.675 172.31L133.414 172.958L134.341 173.332ZM133.655 172.908L134.273 172.123V172.123L133.655 172.908ZM134.093 173.254L135.02 173.627L135.3 172.932L134.711 172.468L134.093 173.254ZM141.688 177.787L142.154 178.671L144.832 177.261L141.841 176.798L141.688 177.787ZM133.084 176.455L132.156 176.081L131.685 177.25L132.931 177.443L133.084 176.455ZM139.393 178.995L139.209 179.978L139.551 180.042L139.859 179.88L139.393 178.995ZM132.835 176.376L132.345 177.248L133.337 177.806L133.763 176.75L132.835 176.376ZM126.266 172.926L126.566 171.972L124.006 171.165L125.414 173.45L126.266 172.926ZM127.532 174.981L126.681 175.505L126.826 175.741L127.071 175.868L127.532 174.981ZM127.261 173.239L127.751 172.368L127.66 172.317L127.561 172.286L127.261 173.239ZM138.52 151.396L139.462 151.734L139.581 151.402L139.465 151.068L138.52 151.396ZM137.661 148.917L136.699 149.192L136.707 149.219L136.716 149.245L137.661 148.917ZM135.05 157.202L134.067 157.016L133.902 157.889L134.749 158.156L135.05 157.202ZM136.293 157.594L135.993 158.548L136.91 158.837L137.235 157.932L136.293 157.594ZM62.3268 224.81L62.2804 223.811L61.836 223.832L61.5538 224.176L62.3268 224.81ZM55.6678 232.923L54.8948 232.289L54.7722 232.438L54.7141 232.623L55.6678 232.923ZM52.8984 241.71L53.3171 242.618L53.7191 242.433L53.8521 242.011L52.8984 241.71ZM46.499 244.661L46.0802 243.753L45.75 243.906L45.5947 244.234L46.499 244.661ZM43.2092 251.629L43.7044 252.497L43.9787 252.341L44.1135 252.056L43.2092 251.629ZM73.8323 305.44L73.5317 306.394L74.3356 306.647L74.7214 305.898L73.8323 305.44ZM18.7013 284.675L17.7731 285.047L17.9182 285.409L18.27 285.577L18.7013 284.675ZM33.5424 257.138L33.8613 258.086L33.9533 258.055L34.0375 258.007L33.5424 257.138ZM22.5299 260.843L22.211 259.895L22.0183 259.96L21.8662 260.095L22.5299 260.843ZM12.6598 269.6L11.9961 268.852L11.4698 269.319L11.7316 269.972L12.6598 269.6ZM90.4703 236.164L89.6153 236.682L89.7116 236.841L89.8585 236.955L90.4703 236.164ZM121.678 254.28L122.327 255.041L123.557 253.994L122.071 253.36L121.678 254.28ZM100.378 272.406L99.7299 271.645L99.7244 271.65L99.719 271.654L100.378 272.406ZM83.0007 287.63L82.3417 286.877L82.1986 287.003L82.1115 287.172L83.0007 287.63ZM176.539 251.146L176.373 252.132L176.839 250.192L176.539 251.146ZM140.933 249.585L140.905 248.585L140.777 248.589L140.654 248.624L140.933 249.585ZM167.188 249.579L167.353 248.593L167.304 248.585L167.254 248.581L167.188 249.579ZM102.368 273.034L101.708 272.282L101.698 272.291L101.689 272.299L102.368 273.034ZM85.0021 289.088L84.3232 288.354L84.1549 288.51L84.0712 288.723L85.0021 289.088ZM78.0611 306.773L77.1303 306.408L76.7389 307.405L77.7605 307.727L78.0611 306.773ZM194.727 343.543L194.427 344.496L195.38 344.797L195.681 343.843L194.727 343.543ZM200.625 291.858L201.625 291.877L201.626 291.823L201.621 291.769L200.625 291.858ZM199.95 326.973L200.903 327.273L200.947 327.136L200.95 326.992L199.95 326.973ZM168.375 245.813L168.547 244.828L168.435 244.809L168.323 244.815L168.375 245.813ZM162.461 248.09L162.575 247.096L162.537 247.092L162.499 247.09L162.461 248.09ZM159.42 249.063L159.486 248.065L159.439 248.062L159.392 248.063L159.42 249.063ZM169.328 248.873L169.629 247.92L169.537 247.891L169.441 247.88L169.328 248.873ZM123.174 254.751L122.895 253.791L122.681 253.853L122.514 254L123.174 254.751ZM104.322 246.878L103.71 247.669L103.812 247.747L103.93 247.797L104.322 246.878ZM39.5041 294.621L39.0727 295.523L39.1363 295.553L39.2035 295.575L39.5041 294.621ZM143.541 150.218L143.888 151.156L147.913 149.665L147.566 148.727L147.218 147.789L143.193 149.281L143.541 150.218ZM147.566 148.727L147.427 149.717L152.142 150.375L152.281 149.385L152.419 148.394L147.704 147.736L147.566 148.727ZM137.369 169.801L138.322 170.102L144.494 150.519L143.541 150.218L142.587 149.918L136.415 169.5L137.369 169.801ZM148.516 151.786L148.012 150.922L144.326 153.073L144.83 153.937L145.334 154.8L149.02 152.65L148.516 151.786ZM152.281 149.385L151.651 150.161L156.66 154.224L157.29 153.448L157.92 152.671L152.91 148.608L152.281 149.385ZM153.977 152.679L154.138 151.693L148.677 150.799L148.516 151.786L148.354 152.773L153.815 153.666L153.977 152.679ZM156.917 156.366L157.699 155.743L154.759 152.056L153.977 152.679L153.195 153.303L156.135 156.99L156.917 156.366ZM153.909 153.762L153.255 154.518L156.262 157.122L156.917 156.366L157.571 155.61L154.564 153.006L153.909 153.762ZM146.978 154.062L147.283 155.014L150.324 154.041L150.02 153.088L149.715 152.136L146.673 153.109L146.978 154.062ZM150.02 153.088L149.849 154.074L153.738 154.747L153.909 153.762L154.08 152.777L150.19 152.103L150.02 153.088ZM151.275 154.312L151.333 153.313L147.036 153.063L146.978 154.062L146.92 155.06L151.217 155.31L151.275 154.312ZM151.049 155.897L152.039 156.038L152.265 154.453L151.275 154.312L150.285 154.171L150.059 155.755L151.049 155.897ZM155.436 156.727L154.85 155.917L153.787 156.686L154.373 157.496L154.959 158.306L156.022 157.537L155.436 156.727ZM154.373 157.496L154.552 156.512L152.483 156.136L152.304 157.12L152.125 158.104L154.194 158.48L154.373 157.496ZM152.304 157.12L153.002 156.404L151.747 155.181L151.049 155.897L150.351 156.613L151.606 157.836L152.304 157.12ZM157.29 153.448L156.926 154.379L160.578 155.806L160.942 154.875L161.306 153.943L157.654 152.516L157.29 153.448ZM163.543 157.902L163.44 156.908L159.483 157.316L159.585 158.311L159.688 159.306L163.646 158.897L163.543 157.902ZM160.942 154.875L160.641 155.828L164.621 157.083L164.922 156.129L165.223 155.175L161.243 153.921L160.942 154.875ZM166.302 160.428L166.977 159.69L164.218 157.165L163.543 157.902L162.868 158.64L165.627 161.166L166.302 160.428ZM164.922 156.129L165.733 156.714L168.65 152.665L167.839 152.08L167.028 151.496L164.111 155.545L164.922 156.129ZM167.839 152.08L168.839 152.082L168.85 146.842L167.85 146.84L166.85 146.838L166.839 152.078L167.839 152.08ZM191.652 160.689L190.691 160.411L184.305 182.41L185.265 182.689L186.225 182.967L192.612 160.968L191.652 160.689ZM189.637 134.11L188.679 134.397L192.14 145.976L193.098 145.689L194.056 145.403L190.595 133.824L189.637 134.11ZM193.098 145.689L192.102 145.593L190.656 160.593L191.652 160.689L192.647 160.785L194.093 145.785L193.098 145.689ZM167.85 146.84L168.299 145.946L162.396 142.982L161.947 143.876L161.499 144.769L167.401 147.733L167.85 146.84ZM161.947 143.876L162.645 143.159L160.135 140.712L159.437 141.428L158.739 142.144L161.249 144.592L161.947 143.876ZM159.437 141.428L160.437 141.438L160.504 134.283L159.504 134.274L158.504 134.264L158.437 141.419L159.437 141.428ZM183.825 125.655L183 126.221L188.813 134.677L189.637 134.11L190.461 133.544L184.649 125.088L183.825 125.655ZM159.504 134.274L160.436 133.91L158.468 128.873L157.537 129.237L156.605 129.601L158.573 134.637L159.504 134.274ZM175.31 118.831L174.685 119.611L183.199 126.435L183.825 125.655L184.45 124.874L175.935 118.051L175.31 118.831ZM157.537 129.237L158.37 128.684L156.515 125.892L155.682 126.445L154.849 126.998L156.704 129.791L157.537 129.237ZM155.682 126.445L155.983 125.491L151.754 124.158L151.453 125.112L151.153 126.066L155.381 127.399L155.682 126.445ZM151.453 125.112L152.342 124.654L150.476 121.03L149.587 121.488L148.698 121.946L150.564 125.57L151.453 125.112ZM165.755 114.44L165.338 115.348L174.892 119.74L175.31 118.831L175.728 117.922L166.173 113.531L165.755 114.44ZM155.568 112.057L155.34 113.031L165.528 115.413L165.755 114.44L165.983 113.466L155.796 111.083L155.568 112.057ZM146.658 112.561L146.715 113.559L155.624 113.055L155.568 112.057L155.511 111.058L146.602 111.562L146.658 112.561ZM149.587 121.488L149.568 120.488L136.362 120.742L136.381 121.742L136.4 122.742L149.607 122.488L149.587 121.488ZM135.103 118.855L135.582 119.733L147.137 113.439L146.658 112.561L146.18 111.683L134.625 117.977L135.103 118.855ZM128.738 124.301L129.388 125.061L135.753 119.615L135.103 118.855L134.453 118.095L128.088 123.541L128.738 124.301ZM136.381 121.742L135.493 121.282L124.312 142.874L125.2 143.334L126.088 143.794L137.269 122.202L136.381 121.742ZM126.997 129.824L127.951 130.125L129.692 124.601L128.738 124.301L127.784 124L126.043 129.524L126.997 129.824ZM120.225 135.694L120.88 136.449L127.652 130.58L126.997 129.824L126.342 129.069L119.57 134.938L120.225 135.694ZM119.332 142.864L120.324 142.988L121.217 135.817L120.225 135.694L119.232 135.57L118.34 142.741L119.332 142.864ZM112.809 148.812L113.482 149.551L120.006 143.603L119.332 142.864L118.658 142.125L112.135 148.073L112.809 148.812ZM125.2 143.334L124.783 144.243L126.694 145.121L127.111 144.212L127.529 143.304L125.618 142.425L125.2 143.334ZM127.111 144.212L127.19 145.209L131.396 144.879L131.317 143.882L131.239 142.885L127.033 143.215L127.111 144.212ZM131.317 143.882L131.068 144.85L135.873 146.089L136.123 145.12L136.372 144.152L131.567 142.913L131.317 143.882ZM136.123 145.12L135.234 145.578L136.252 147.555L137.141 147.097L138.03 146.639L137.012 144.663L136.123 145.12ZM136.282 150.69L137.226 150.363L135.937 146.644L134.992 146.972L134.048 147.3L135.337 151.018L136.282 150.69ZM134.992 146.972L135.143 145.983L128.359 144.949L128.208 145.938L128.057 146.926L134.842 147.961L134.992 146.972ZM128.208 145.938L127.578 145.161L126.108 146.354L126.738 147.131L127.369 147.907L128.838 146.714L128.208 145.938ZM132.935 147.428L132.27 148.175L134.192 149.885L134.857 149.137L135.521 148.39L133.599 146.68L132.935 147.428ZM134.857 149.137L133.935 149.526L134.874 151.753L135.795 151.365L136.717 150.977L135.778 148.749L134.857 149.137ZM126.738 147.131L126.758 148.13L130.059 148.067L130.04 147.067L130.021 146.067L126.719 146.131L126.738 147.131ZM130.04 147.067L129.916 148.06L132.811 148.42L132.935 147.428L133.058 146.435L130.163 146.075L130.04 147.067ZM130.967 148.463L130.902 147.466L127.273 147.702L127.338 148.7L127.403 149.697L131.032 149.461L130.967 148.463ZM132.324 151.099L132.943 150.314L131.19 148.933L130.572 149.719L129.953 150.504L131.706 151.885L132.324 151.099ZM130.572 149.719L131.525 150.019L131.921 148.764L130.967 148.463L130.013 148.163L129.618 149.418L130.572 149.719ZM135.795 151.365L136.32 150.514L135.404 149.949L134.88 150.801L134.355 151.652L135.271 152.216L135.795 151.365ZM134.88 150.801L134.763 149.807L132.208 150.106L132.324 151.099L132.44 152.092L134.996 151.794L134.88 150.801ZM123.618 148.355L122.705 147.946L120.863 152.057L121.775 152.466L122.688 152.875L124.53 148.764L123.618 148.355ZM112.391 154.477L113.388 154.55L113.806 148.886L112.809 148.812L111.811 148.739L111.393 154.403L112.391 154.477ZM121.775 152.466L120.8 152.244L117.918 164.859L118.893 165.082L119.868 165.305L122.75 152.689L121.775 152.466ZM106.116 160.503L106.809 161.224L113.083 155.198L112.391 154.477L111.698 153.755L105.423 159.782L106.116 160.503ZM104.567 168.019L105.547 168.221L107.095 160.705L106.116 160.503L105.136 160.301L103.588 167.817L104.567 168.019ZM100.678 173.417L101.49 174.002L105.379 168.604L104.567 168.019L103.756 167.435L99.867 172.833L100.678 173.417ZM101.685 180.635L102.615 180.268L101.247 176.8L100.317 177.167L99.3867 177.535L100.755 181.002L101.685 180.635ZM100.317 177.167L101.312 177.263L101.674 173.513L100.678 173.417L99.683 173.321L99.3215 177.071L100.317 177.167ZM100.046 187.57L101.02 187.8L102.658 180.865L101.685 180.635L100.712 180.405L99.0732 187.34L100.046 187.57ZM118.893 165.082L117.897 165.173L119.063 177.96L120.059 177.869L121.054 177.779L119.889 164.991L118.893 165.082ZM120.059 177.869L119.261 178.472L127.753 189.705L128.551 189.102L129.349 188.499L120.856 177.266L120.059 177.869ZM166.008 163.095L167.002 163.205L167.296 160.537L166.302 160.428L165.308 160.318L165.014 162.986L166.008 163.095ZM163.566 165.638L164.287 166.33L166.729 163.788L166.008 163.095L165.287 162.403L162.845 164.945L163.566 165.638ZM152.69 173.25L153.263 174.069L164.139 166.457L163.566 165.638L162.993 164.818L152.116 172.43L152.69 173.25ZM149.05 184.799L150.003 185.099L153.643 173.55L152.69 173.25L151.736 172.949L148.096 184.498L149.05 184.799ZM185.265 182.689L184.29 182.468L178.763 206.946L179.738 207.167L180.713 207.387L186.241 182.909L185.265 182.689ZM143.25 189.319L143.864 190.107L149.664 185.587L149.05 184.799L148.435 184.01L142.635 188.53L143.25 189.319ZM128.551 189.102L128.536 190.102L143.235 190.318L143.25 189.319L143.264 188.319L128.566 188.102L128.551 189.102ZM144.83 153.937L143.907 153.552L137.192 169.651L138.115 170.036L139.038 170.421L145.753 154.321L144.83 153.937ZM138.115 170.036L137.226 170.494L137.565 171.153L138.454 170.695L139.343 170.237L139.004 169.578L138.115 170.036ZM138.239 173.111L138.22 172.112L136.569 172.143L136.589 173.143L136.608 174.143L138.259 174.111L138.239 173.111ZM139.89 173.08L139.871 172.08L138.22 172.112L138.239 173.111L138.259 174.111L139.909 174.08L139.89 173.08ZM140.942 171.479L140.106 170.93L139.054 172.531L139.89 173.08L140.726 173.629L141.777 172.028L140.942 171.479ZM140.817 168.404L139.883 168.761L140.482 170.33L141.416 169.973L142.351 169.616L141.751 168.047L140.817 168.404ZM141.416 169.973L140.463 169.672L139.988 171.179L140.942 171.479L141.895 171.78L142.37 170.273L141.416 169.973ZM138.454 170.695L138.348 171.69L139.671 171.83L139.777 170.836L139.883 169.842L138.56 169.701L138.454 170.695ZM139.777 170.836L140.498 171.529L141.312 170.681L140.591 169.989L139.87 169.296L139.056 170.143L139.777 170.836ZM140.591 169.989L141.581 170.13L141.807 168.545L140.817 168.404L139.827 168.263L139.601 169.847L140.591 169.989ZM132.778 172.218L133.303 171.367L132.387 170.802L131.862 171.654L131.338 172.505L132.253 173.069L132.778 172.218ZM131.862 171.654L132.807 171.326L132.377 170.087L131.433 170.414L130.488 170.742L130.918 171.981L131.862 171.654ZM130.403 167.606L129.785 168.391L131.537 169.772L132.156 168.986L132.775 168.201L131.022 166.82L130.403 167.606ZM131.433 170.414L132.266 169.861L131.338 168.465L130.505 169.018L129.672 169.571L130.6 170.967L131.433 170.414ZM130.505 169.018L131.503 168.946L131.401 167.534L130.403 167.606L129.406 167.678L129.508 169.09L130.505 169.018ZM134.983 170.429L135.238 171.396L137.623 170.768L137.369 169.801L137.114 168.834L134.728 169.462L134.983 170.429ZM132.156 168.986L132.967 169.571L134.426 167.546L133.615 166.962L132.803 166.377L131.345 168.402L132.156 168.986ZM133.615 166.962L132.631 166.781L132.247 168.868L133.23 169.049L134.214 169.23L134.598 167.143L133.615 166.962ZM133.23 169.049L132.612 169.834L134.364 171.215L134.983 170.429L135.602 169.644L133.849 168.263L133.23 169.049ZM157.426 157.354L157.726 156.401L155.736 155.773L155.436 156.727L155.135 157.681L157.125 158.308L157.426 157.354ZM159.585 158.311L159.886 157.357L158.891 157.044L158.59 157.998L158.29 158.951L159.285 159.265L159.585 158.311ZM151.942 160.87L152.347 159.956L148.028 158.043L147.623 158.957L147.218 159.871L151.537 161.785L151.942 160.87ZM154.825 160.399L154.664 159.412L151.781 159.883L151.942 160.87L152.104 161.857L154.987 161.386L154.825 160.399ZM147.623 158.957L147.322 159.911L151.551 161.243L151.852 160.29L152.152 159.336L147.924 158.003L147.623 158.957ZM151.852 160.29L152.013 161.277L154.32 160.9L154.158 159.913L153.997 158.926L151.69 159.303L151.852 160.29ZM158.59 157.998L159.288 157.281L158.87 156.874L158.172 157.59L157.474 158.306L157.892 158.714L158.59 157.998ZM158.172 157.59L157.529 156.824L154.183 159.633L154.825 160.399L155.468 161.165L158.815 158.356L158.172 157.59ZM154.158 159.913L154.702 160.752L158.139 158.523L157.595 157.684L157.051 156.845L153.614 159.074L154.158 159.913ZM157.595 157.684L158.485 157.226L158.315 156.897L157.426 157.354L156.537 157.812L156.706 158.142L157.595 157.684ZM132.633 197.841L133.307 197.101L128.207 192.458L127.534 193.197L126.86 193.937L131.96 198.58L132.633 197.841ZM139.893 203.441L140.503 202.649L133.244 197.049L132.633 197.841L132.022 198.632L139.282 204.232L139.893 203.441ZM150.046 203.329L150.035 202.329L139.882 202.441L139.893 203.441L139.904 204.441L150.057 204.329L150.046 203.329ZM154.399 201.665L154.042 200.73L149.689 202.395L150.046 203.329L150.403 204.263L154.756 202.599L154.399 201.665ZM154.773 204.818L155.766 204.701L155.392 201.547L154.399 201.665L153.406 201.782L153.779 204.936L154.773 204.818ZM153.077 207.596L153.93 208.117L155.626 205.339L154.773 204.818L153.919 204.297L152.223 207.075L153.077 207.596ZM153.846 209.494L154.773 209.119L154.004 207.22L153.077 207.596L152.15 207.971L152.919 209.87L153.846 209.494ZM155.779 212.036L156.575 211.43L154.642 208.889L153.846 209.494L153.05 210.1L154.984 212.641L155.779 212.036ZM154.31 213.228L154.94 214.005L156.41 212.812L155.779 212.036L155.149 211.259L153.679 212.452L154.31 213.228ZM155.825 215.362L156.64 214.783L155.125 212.649L154.31 213.228L153.494 213.807L155.01 215.941L155.825 215.362ZM154.118 217.308L154.869 217.967L156.577 216.021L155.825 215.362L155.073 214.702L153.366 216.648L154.118 217.308ZM154.717 218.877L155.651 218.52L155.052 216.951L154.118 217.308L153.184 217.665L153.783 219.234L154.717 218.877ZM179.738 207.167L178.75 207.011L176.015 224.365L177.003 224.521L177.991 224.676L180.726 207.322L179.738 207.167ZM177.003 224.521L176.068 224.876L182.492 241.804L183.427 241.449L184.362 241.095L177.938 224.166L177.003 224.521ZM152.693 221.827L153.518 222.393L155.542 219.442L154.717 218.877L153.892 218.311L151.869 221.261L152.693 221.827ZM153.383 223.976L154.335 223.671L153.646 221.521L152.693 221.827L151.741 222.133L152.431 224.282L153.383 223.976ZM151.111 226.848L151.895 227.469L154.167 224.597L153.383 223.976L152.599 223.356L150.327 226.228L151.111 226.848ZM151.054 228.762L152.054 228.792L152.11 226.878L151.111 226.848L150.111 226.819L150.055 228.733L151.054 228.762ZM149.845 230.865L150.712 231.364L151.921 229.261L151.054 228.762L150.188 228.264L148.978 230.367L149.845 230.865ZM149.868 232.528L150.867 232.515L150.845 230.852L149.845 230.865L148.845 230.879L148.868 232.542L149.868 232.528ZM183.427 241.449L182.72 242.156L189.165 248.604L189.872 247.897L190.579 247.19L184.134 240.742L183.427 241.449ZM189.872 247.897L189.141 248.579L194.252 254.054L194.983 253.372L195.714 252.689L190.603 247.214L189.872 247.897ZM182.116 248.212L182.57 247.321L172.677 242.271L172.222 243.162L171.767 244.053L181.661 249.103L182.116 248.212ZM194.983 253.372L194.062 253.76L196.878 260.443L197.799 260.055L198.721 259.667L195.905 252.983L194.983 253.372ZM147.844 235.479L148.669 236.044L150.692 233.094L149.868 232.528L149.043 231.963L147.019 234.913L147.844 235.479ZM147.731 239.307L148.731 239.337L148.843 235.508L147.844 235.479L146.844 235.449L146.732 239.278L147.731 239.307ZM172.222 243.162L172.184 242.163L145.613 243.172L145.651 244.171L145.689 245.171L172.26 244.161L172.222 243.162ZM145.651 244.171L145.232 243.263L126.034 252.117L126.453 253.025L126.872 253.933L146.07 245.08L145.651 244.171ZM128.149 250.247L128.636 251.12L148.219 240.18L147.731 239.307L147.243 238.434L127.661 249.374L128.149 250.247ZM126.453 253.025L126.936 252.149L124.607 250.863L124.124 251.739L123.64 252.614L125.97 253.9L126.453 253.025ZM124.124 251.739L124.549 250.834L101.449 239.965L101.023 240.87L100.597 241.775L123.698 252.644L124.124 251.739ZM102.481 238.846L102.075 239.76L127.743 251.161L128.149 250.247L128.555 249.333L102.887 237.932L102.481 238.846ZM101.023 240.87L101.637 240.081L93.2922 233.587L92.6781 234.376L92.0639 235.165L100.409 241.659L101.023 240.87ZM92.6781 234.376L93.6122 234.019L90.0159 224.606L89.0818 224.962L88.1476 225.319L91.7439 234.733L92.6781 234.376ZM91.7612 221.667L90.7964 221.93L93.8388 233.101L94.8036 232.838L95.7685 232.575L92.7261 221.404L91.7612 221.667ZM94.8036 232.838L94.1874 233.625L101.865 239.633L102.481 238.846L103.098 238.058L95.4199 232.05L94.8036 232.838ZM89.0818 224.962L88.2351 224.43L85.4848 228.807L86.3315 229.339L87.1782 229.871L89.9285 225.495L89.0818 224.962ZM92.6544 220.568L91.8785 219.938L90.9853 221.036L91.7612 221.667L92.5371 222.298L93.4303 221.199L92.6544 220.568ZM94.7122 220.113L94.4961 219.137L92.4383 219.592L92.6544 220.568L92.8705 221.545L94.9282 221.089L94.7122 220.113ZM95.1296 208.377L94.1302 208.341L93.7128 220.077L94.7122 220.113L95.7115 220.149L96.1289 208.412L95.1296 208.377ZM127.534 193.197L126.538 193.099L125.668 201.933L126.664 202.031L127.659 202.129L128.529 193.295L127.534 193.197ZM126.664 202.031L126.291 201.103L106.256 209.141L106.629 210.069L107.001 210.997L127.036 202.959L126.664 202.031ZM100.352 197.879L101.352 197.849L101.046 187.54L100.046 187.57L99.0468 187.6L99.3529 197.908L100.352 197.879ZM97.492 200.013L98.0901 200.815L100.951 198.68L100.352 197.879L99.7544 197.077L96.894 199.212L97.492 200.013ZM97.7185 204.501L98.7172 204.45L98.4907 199.963L97.492 200.013L96.4933 200.064L96.7198 204.551L97.7185 204.501ZM94.3042 208.392L95.0559 209.052L98.4702 205.16L97.7185 204.501L96.9668 203.841L93.5525 207.733L94.3042 208.392ZM106.629 210.069L105.675 209.768L104.567 213.283L105.521 213.584L106.475 213.884L107.582 210.369L106.629 210.069ZM105.521 213.584L105.221 212.63L101.275 213.87L101.575 214.824L101.875 215.778L105.821 214.538L105.521 213.584ZM101.575 214.824L100.583 214.951L101.137 219.266L102.129 219.139L103.121 219.011L102.567 214.697L101.575 214.824ZM102.129 219.139L101.938 218.157L98.1503 218.895L98.3416 219.877L98.5329 220.858L102.321 220.12L102.129 219.139ZM94.1805 217.461L95.1804 217.475L95.3041 208.406L94.3042 208.392L93.3043 208.379L93.1806 217.448L94.1805 217.461ZM94.9387 224.6L95.7922 225.121L97.4879 222.344L96.6344 221.823L95.7809 221.302L94.0852 224.079L94.9387 224.6ZM96.6344 221.823L97.506 221.333L95.052 216.971L94.1805 217.461L93.309 217.952L95.7629 222.313L96.6344 221.823ZM98.3416 219.877L97.3596 220.066L97.9818 223.298L98.9637 223.109L99.9457 222.92L99.3236 219.688L98.3416 219.877ZM98.9637 223.109L98.6163 222.171L94.5912 223.663L94.9387 224.6L95.2861 225.538L99.3112 224.047L98.9637 223.109ZM81.9915 213.62L82.3622 214.549L95.5002 209.305L95.1296 208.377L94.7589 207.448L81.6209 212.691L81.9915 213.62ZM68.4324 224.526L69.2368 225.121L73.5361 219.3L72.7317 218.705L71.9273 218.111L67.628 223.932L68.4324 224.526ZM72.7317 218.705L73.2131 219.582L82.4729 214.496L81.9915 213.62L81.5101 212.743L72.2503 217.829L72.7317 218.705ZM127.338 148.7L127.499 147.713L125.679 147.415L125.517 148.402L125.356 149.389L127.176 149.686L127.338 148.7ZM133.433 153.656L133.216 152.68L131.159 153.136L131.375 154.112L131.591 155.088L133.649 154.633L133.433 153.656ZM131.375 154.112L131.774 153.195L127.206 151.204L126.807 152.12L126.407 153.037L130.975 155.029L131.375 154.112ZM126.807 152.12L127.57 151.474L124.381 147.709L123.618 148.355L122.855 149.001L126.044 152.766L126.807 152.12ZM131.115 153.202L130.922 154.183L133.24 154.638L133.433 153.656L133.625 152.675L131.307 152.221L131.115 153.202ZM125.517 148.402L124.628 148.86L126.155 151.825L127.044 151.367L127.933 150.909L126.406 147.944L125.517 148.402ZM127.044 151.367L126.633 152.279L130.704 154.114L131.115 153.202L131.526 152.29L127.455 150.455L127.044 151.367ZM136.589 173.143L136.373 172.167L135.344 172.395L135.56 173.371L135.776 174.347L136.805 174.12L136.589 173.143ZM135.56 173.371L135.592 172.371L134.373 172.332L134.341 173.332L134.31 174.331L135.528 174.37L135.56 173.371ZM133.655 172.908L134.273 172.123L133.397 171.433L132.778 172.218L132.159 173.004L133.036 173.694L133.655 172.908ZM134.093 173.254L134.711 172.468L134.273 172.123L133.655 172.908L133.036 173.694L133.474 174.039L134.093 173.254ZM134.341 173.332L133.414 172.958L132.156 176.081L133.084 176.455L134.011 176.828L135.269 173.706L134.341 173.332ZM133.084 176.455L132.931 177.443L141.535 178.775L141.688 177.787L141.841 176.798L133.237 175.466L133.084 176.455ZM141.688 177.787L141.222 176.902L138.927 178.11L139.393 178.995L139.859 179.88L142.154 178.671L141.688 177.787ZM139.393 178.995L139.577 178.012L133.121 176.805L132.937 177.788L132.753 178.771L139.209 179.978L139.393 178.995ZM132.835 176.376L133.763 176.75L135.02 173.627L134.093 173.254L133.165 172.88L131.907 176.003L132.835 176.376ZM132.937 177.788L133.398 176.901L127.993 174.093L127.532 174.981L127.071 175.868L132.476 178.676L132.937 177.788ZM127.532 174.981L128.383 174.456L127.117 172.401L126.266 172.926L125.414 173.45L126.681 175.505L127.532 174.981ZM126.266 172.926L125.965 173.879L126.96 174.193L127.261 173.239L127.561 172.286L126.566 171.972L126.266 172.926ZM127.261 173.239L126.77 174.111L132.345 177.248L132.835 176.376L133.326 175.505L127.751 172.368L127.261 173.239ZM137.141 147.097L136.179 147.372L136.699 149.192L137.661 148.917L138.622 148.642L138.102 146.822L137.141 147.097ZM137.661 148.917L136.716 149.245L137.576 151.724L138.52 151.396L139.465 151.068L138.606 148.59L137.661 148.917ZM135.05 157.202L136.032 157.388L137.264 150.876L136.282 150.69L135.299 150.505L134.067 157.016L135.05 157.202ZM138.52 151.396L137.579 151.058L135.352 157.256L136.293 157.594L137.235 157.932L139.462 151.734L138.52 151.396ZM136.293 157.594L136.594 156.64L135.35 156.248L135.05 157.202L134.749 158.156L135.993 158.548L136.293 157.594ZM62.3268 224.81L62.3732 225.809L68.4788 225.525L68.4324 224.526L68.386 223.527L62.2804 223.811L62.3268 224.81ZM55.6678 232.923L56.4408 233.558L63.0998 225.445L62.3268 224.81L61.5538 224.176L54.8948 232.289L55.6678 232.923ZM52.8984 241.71L53.8521 242.011L56.6216 233.224L55.6678 232.923L54.7141 232.623L51.9446 241.41L52.8984 241.71ZM46.499 244.661L46.9177 245.569L53.3171 242.618L52.8984 241.71L52.4796 240.802L46.0802 243.753L46.499 244.661ZM43.2092 251.629L44.1135 252.056L47.4032 245.088L46.499 244.661L45.5947 244.234L42.305 251.202L43.2092 251.629ZM33.5424 257.138L34.0375 258.007L43.7044 252.497L43.2092 251.629L42.7141 250.76L33.0472 256.269L33.5424 257.138ZM22.5299 260.843L22.8488 261.791L33.8613 258.086L33.5424 257.138L33.2235 256.19L22.211 259.895L22.5299 260.843ZM18.7013 284.675L19.6296 284.303L13.588 269.228L12.6598 269.6L11.7316 269.972L17.7731 285.047L18.7013 284.675ZM12.6598 269.6L13.3235 270.348L23.1936 261.591L22.5299 260.843L21.8662 260.095L11.9961 268.852L12.6598 269.6ZM86.3315 229.339L85.4765 229.858L89.6153 236.682L90.4703 236.164L91.3254 235.645L87.1865 228.821L86.3315 229.339ZM121.678 254.28L121.03 253.518L99.7299 271.645L100.378 272.406L101.026 273.168L122.327 255.041L121.678 254.28ZM100.378 272.406L99.719 271.654L82.3417 286.877L83.0007 287.63L83.6596 288.382L101.037 273.159L100.378 272.406ZM83.0007 287.63L82.1115 287.172L72.9432 304.982L73.8323 305.44L74.7214 305.898L83.8898 288.087L83.0007 287.63ZM167.188 249.579L167.022 250.565L176.373 252.132L176.539 251.146L176.704 250.16L167.353 248.593L167.188 249.579ZM85.0021 289.088L85.6809 289.823L103.047 273.768L102.368 273.034L101.689 272.299L84.3232 288.354L85.0021 289.088ZM78.0611 306.773L78.992 307.138L85.9329 289.454L85.0021 289.088L84.0712 288.723L77.1303 306.408L78.0611 306.773ZM194.727 343.543L195.028 342.589L78.3617 305.819L78.0611 306.773L77.7605 307.727L194.427 344.496L194.727 343.543ZM197.799 260.055L196.803 260.144L199.629 291.946L200.625 291.858L201.621 291.769L198.795 259.967L197.799 260.055ZM200.625 291.858L199.626 291.838L198.95 326.953L199.95 326.973L200.95 326.992L201.625 291.877L200.625 291.858ZM199.95 326.973L198.996 326.672L193.774 343.242L194.727 343.543L195.681 343.843L200.903 327.273L199.95 326.973ZM140.575 247.264L140.627 248.262L168.427 246.812L168.375 245.813L168.323 244.815L140.522 246.265L140.575 247.264ZM168.375 245.813L168.203 246.798L181.944 249.197L182.116 248.212L182.288 247.227L168.547 244.828L168.375 245.813ZM162.461 248.09L162.499 247.09L140.612 246.264L140.575 247.264L140.537 248.263L162.424 249.089L162.461 248.09ZM140.933 249.585L140.962 250.584L159.448 250.062L159.42 249.063L159.392 248.063L140.905 248.585L140.933 249.585ZM159.42 249.063L159.354 250.061L167.121 250.577L167.188 249.579L167.254 248.581L159.486 248.065L159.42 249.063ZM176.539 251.146L176.839 250.192L169.629 247.92L169.328 248.873L169.027 249.827L176.238 252.1L176.539 251.146ZM169.328 248.873L169.441 247.88L162.575 247.096L162.461 248.09L162.348 249.083L169.215 249.867L169.328 248.873ZM102.368 273.034L103.028 273.785L123.834 255.502L123.174 254.751L122.514 254L101.708 272.282L102.368 273.034ZM123.174 254.751L123.453 255.711L141.213 250.545L140.933 249.585L140.654 248.624L122.895 253.791L123.174 254.751ZM90.4703 236.164L89.8585 236.955L103.71 247.669L104.322 246.878L104.934 246.086L91.0821 235.373L90.4703 236.164ZM104.322 246.878L103.93 247.797L121.286 255.2L121.678 254.28L122.071 253.36L104.714 245.958L104.322 246.878ZM73.8323 305.44L74.1329 304.486L39.8047 293.667L39.5041 294.621L39.2035 295.575L73.5317 306.394L73.8323 305.44ZM39.5041 294.621L39.9354 293.719L19.1327 283.773L18.7013 284.675L18.27 285.577L39.0727 295.523L39.5041 294.621Z" fill="#4469AE" fill-opacity="0.8" mask="url(#path-1-inside-1_203_230)"/>
<path d="M139.871 168.872C144.737 153.432 124.74 153.487 120.979 165.418C117.219 177.35 125.191 184.813 134.055 187.607C149.413 192.447 161.616 182.698 167.62 166.943C175.757 145.591 161.686 114.914 138.711 107.673C102.874 96.3781 60.6927 117.197 46.9791 160.708C31.8974 208.561 45.1481 288.813 120.341 313.28C172.349 330.203 231.01 310.847 272.933 283.313" stroke="#FFD21D" stroke-opacity="0.92" stroke-width="5"/>
<rect x="67.5352" y="80.7629" width="257.162" height="212.154" rx="31" transform="rotate(17.4933 67.5352 80.7629)" stroke="#4469AE" stroke-width="6"/>
<line x1="246.057" y1="137.19" x2="297.719" y2="207.979" stroke="#4469AE" stroke-width="6"/>
<path d="M1052.48 198.948L1054.72 200.943L1054.73 200.935L1054.74 200.926L1052.48 198.948ZM1147.22 93.4345C1147.1 91.7794 1145.67 90.5265 1144.02 90.6361L1117.12 92.4224C1115.47 92.532 1114.22 93.9626 1114.33 95.6177C1114.45 97.2728 1115.88 98.5257 1117.53 98.4161L1141.44 96.8283L1143.09 120.803C1143.2 122.458 1144.63 123.711 1146.28 123.601C1147.94 123.492 1149.18 122.061 1149.07 120.406L1147.22 93.4345ZM962.042 301.243L964.288 303.238L1054.72 200.943L1052.48 198.948L1050.23 196.953L959.797 299.248L962.042 301.243ZM1052.48 198.948L1054.74 200.926L1146.49 95.6117L1144.23 93.6329L1141.97 91.6542L1050.22 196.969L1052.48 198.948Z" fill="#4469AE"/>
<path d="M1194 143.052L1150.74 86.6687L1215.81 89.9496L1188.49 105.863L1194 143.052Z" fill="#FFC31D" stroke="#4469AE" stroke-width="3"/>
<path d="M966.779 239.511C967.151 239.092 967.36 238.66 967.406 238.215C967.451 237.757 967.261 237.339 966.834 236.962C966.519 236.684 966.174 236.546 965.796 236.549C965.425 236.545 964.959 236.718 964.398 237.069L963.239 237.783C962.658 238.141 962.072 238.295 961.48 238.245C960.887 238.182 960.321 237.912 959.782 237.436C959.426 237.121 959.165 236.747 959 236.314C958.841 235.875 958.816 235.404 958.925 234.902C959.04 234.394 959.327 233.881 959.786 233.365C960.288 232.8 960.799 232.436 961.319 232.272C961.831 232.103 962.314 232.094 962.767 232.245C963.219 232.396 963.604 232.673 963.919 233.077L963.07 234.475C962.519 233.788 961.975 233.395 961.44 233.295C960.91 233.188 960.441 233.365 960.032 233.826C959.716 234.181 959.566 234.56 959.584 234.962C959.608 235.357 959.815 235.727 960.207 236.073C960.529 236.358 960.892 236.517 961.298 236.552C961.71 236.58 962.172 236.44 962.683 236.132L963.842 235.419C964.467 235.025 965.054 234.834 965.605 234.847C966.148 234.854 966.696 235.102 967.248 235.59C967.64 235.936 967.912 236.339 968.066 236.799C968.218 237.245 968.224 237.73 968.084 238.254C967.942 238.764 967.633 239.288 967.155 239.825C966.808 240.216 966.424 240.536 966.002 240.786C965.573 241.03 965.12 241.153 964.644 241.155C964.173 241.15 963.683 240.978 963.173 240.639L963.544 239.715C964.023 240.076 964.459 240.288 964.853 240.35C965.247 240.399 965.601 240.344 965.916 240.187C966.237 240.022 966.525 239.797 966.779 239.511ZM964.947 229.602C964.754 229.819 964.533 229.934 964.282 229.949C964.025 229.958 963.787 229.867 963.571 229.675C963.354 229.484 963.238 229.263 963.223 229.013C963.208 228.763 963.297 228.53 963.489 228.313C963.675 228.104 963.896 227.988 964.153 227.966C964.41 227.944 964.647 228.029 964.863 228.221C965.08 228.412 965.197 228.64 965.212 228.903C965.221 229.16 965.133 229.393 964.947 229.602ZM964.896 232.062L964.602 231.802L966.388 229.793L970.825 233.716C971.062 233.926 971.215 234.042 971.282 234.064C971.343 234.081 971.43 234.039 971.543 233.94L972.128 233.429L972.422 233.689L969.92 236.504L969.626 236.244L970.064 235.604C970.149 235.48 970.18 235.389 970.157 235.331C970.127 235.266 969.993 235.129 969.755 234.919L966.199 231.775C965.962 231.565 965.813 231.452 965.752 231.436C965.685 231.413 965.594 231.452 965.481 231.551L964.896 232.062ZM977.872 226.966L978.166 227.226L975.664 230.041L975.37 229.781L975.808 229.141C975.894 229.017 975.925 228.926 975.901 228.868C975.871 228.804 975.737 228.666 975.499 228.456L972.856 226.119C972.374 225.693 971.965 225.45 971.631 225.391C971.289 225.325 971 225.425 970.765 225.69C970.666 225.802 970.579 225.962 970.506 226.171C970.425 226.374 970.394 226.621 970.411 226.91C970.435 227.193 970.547 227.523 970.749 227.9L973.685 230.497C973.923 230.707 974.076 230.823 974.143 230.845C974.204 230.862 974.291 230.82 974.404 230.721L974.989 230.21L975.283 230.47L972.781 233.285L972.487 233.025L972.925 232.385C973.01 232.261 973.041 232.17 973.018 232.112C972.988 232.047 972.854 231.91 972.616 231.7L969.06 228.556C968.823 228.346 968.674 228.233 968.613 228.217C968.545 228.194 968.455 228.233 968.342 228.332L967.757 228.843L967.463 228.583L969.193 226.637L970.116 227.453C969.933 226.942 969.898 226.462 970.01 226.013C970.115 225.558 970.307 225.173 970.586 224.859C970.921 224.483 971.301 224.252 971.726 224.167C972.15 224.068 972.59 224.121 973.046 224.325C972.822 223.79 972.765 223.285 972.875 222.81C972.986 222.334 973.184 221.936 973.469 221.615C973.909 221.12 974.424 220.871 975.013 220.869C975.602 220.866 976.197 221.131 976.798 221.663L979.452 224.009C979.689 224.219 979.842 224.335 979.91 224.358C979.97 224.374 980.057 224.332 980.17 224.233L980.755 223.722L981.049 223.982L978.547 226.797L978.253 226.537L978.692 225.897C978.777 225.773 978.808 225.682 978.784 225.624C978.754 225.56 978.62 225.422 978.382 225.212L975.739 222.875C975.257 222.449 974.848 222.206 974.514 222.147C974.172 222.081 973.884 222.181 973.648 222.446C973.549 222.558 973.462 222.718 973.389 222.928C973.308 223.13 973.28 223.38 973.305 223.675C973.329 223.971 973.446 224.311 973.654 224.694C973.695 224.718 973.74 224.752 973.789 224.795C973.831 224.832 973.873 224.869 973.915 224.906L976.569 227.253C976.806 227.463 976.959 227.579 977.027 227.602C977.087 227.618 977.174 227.576 977.287 227.477L977.872 226.966ZM976.275 219.259L975.981 218.999L977.711 217.053L978.582 217.823C978.433 217.33 978.383 216.894 978.433 216.514C978.483 216.135 978.654 215.781 978.945 215.453C979.466 214.867 980.113 214.611 980.885 214.683C981.657 214.742 982.462 215.143 983.301 215.885L983.511 216.07C984.322 216.787 984.792 217.558 984.921 218.382C985.05 219.206 984.801 219.971 984.175 220.675C983.803 221.094 983.37 221.371 982.875 221.506L984.437 222.888C984.675 223.098 984.824 223.212 984.885 223.228C984.952 223.25 985.043 223.212 985.156 223.112L985.927 222.392L986.22 222.652L983.533 225.676L983.239 225.417L983.677 224.776C983.762 224.652 983.79 224.558 983.759 224.494C983.736 224.436 983.605 224.302 983.368 224.092L977.578 218.973C977.341 218.762 977.191 218.649 977.131 218.633C977.063 218.611 976.973 218.649 976.86 218.748L976.275 219.259ZM979.165 216.133C979.01 216.308 978.919 216.558 978.892 216.883C978.865 217.195 978.972 217.657 979.214 218.27L982.382 221.071C982.883 221.04 983.304 220.833 983.645 220.45C983.992 220.059 984.069 219.629 983.875 219.158C983.681 218.675 983.283 218.167 982.681 217.635L981.842 216.893C981.192 216.319 980.645 215.978 980.202 215.873C979.759 215.768 979.413 215.854 979.165 216.133ZM979.271 210.977L978.978 210.717L980.763 208.708L987.644 214.792C987.881 215.002 988.034 215.118 988.102 215.14C988.162 215.157 988.249 215.115 988.362 215.016L988.947 214.505L989.241 214.765L986.739 217.58L986.445 217.32L986.883 216.68C986.969 216.556 987 216.465 986.976 216.407C986.946 216.342 986.812 216.205 986.574 215.995L980.575 210.691C980.337 210.48 980.188 210.367 980.128 210.351C980.06 210.329 979.97 210.367 979.856 210.466L979.271 210.977ZM984.628 207.458C984.436 207.674 984.215 207.79 983.964 207.805C983.706 207.814 983.469 207.722 983.252 207.531C983.036 207.339 982.92 207.118 982.905 206.868C982.89 206.618 982.978 206.385 983.17 206.169C983.356 205.959 983.578 205.844 983.835 205.822C984.092 205.8 984.328 205.884 984.545 206.076C984.762 206.268 984.878 206.495 984.894 206.758C984.903 207.015 984.814 207.248 984.628 207.458ZM984.578 209.917L984.284 209.657L986.07 207.648L990.506 211.571C990.744 211.781 990.897 211.897 990.964 211.92C991.025 211.936 991.112 211.894 991.225 211.795L991.81 211.285L992.103 211.544L989.602 214.359L989.308 214.099L989.746 213.459C989.831 213.335 989.862 213.244 989.839 213.186C989.808 213.122 989.674 212.985 989.437 212.774L985.881 209.631C985.643 209.42 985.494 209.307 985.434 209.291C985.366 209.269 985.276 209.307 985.163 209.406L984.578 209.917ZM989.714 204.075C989.416 204.41 989.354 204.803 989.527 205.255C989.699 205.694 990.159 206.244 990.907 206.905L991.536 207.462C992.277 208.117 992.896 208.496 993.392 208.598C993.881 208.694 994.315 208.529 994.693 208.104C994.972 207.79 995.111 207.458 995.11 207.108C995.108 206.745 994.906 206.361 994.504 205.956L995.288 205.453C995.666 206.011 995.811 206.551 995.723 207.071C995.634 207.578 995.392 208.055 994.995 208.502C994.282 209.304 993.504 209.694 992.662 209.672C991.813 209.644 990.987 209.274 990.182 208.563L989.973 208.378C989.169 207.667 988.699 206.903 988.564 206.086C988.428 205.268 988.689 204.49 989.347 203.75C989.781 203.262 990.232 202.951 990.701 202.817C991.168 202.67 991.615 202.673 992.042 202.826C992.467 202.965 992.83 203.224 993.131 203.602L992.276 204.901C991.757 204.305 991.274 203.935 990.829 203.79C990.383 203.645 990.011 203.74 989.714 204.075ZM992.167 198.976C991.975 199.192 991.753 199.308 991.502 199.323C991.245 199.332 991.008 199.24 990.791 199.049C990.574 198.857 990.458 198.636 990.443 198.386C990.428 198.136 990.517 197.903 990.709 197.687C990.895 197.478 991.116 197.362 991.373 197.34C991.63 197.318 991.867 197.403 992.084 197.594C992.3 197.786 992.417 198.013 992.433 198.276C992.441 198.533 992.353 198.767 992.167 198.976ZM992.116 201.435L991.822 201.176L993.608 199.166L998.045 203.089C998.282 203.299 998.435 203.416 998.503 203.438C998.563 203.454 998.65 203.413 998.763 203.313L999.348 202.803L999.642 203.062L997.14 205.877L996.846 205.618L997.284 204.977C997.37 204.853 997.401 204.762 997.377 204.704C997.347 204.64 997.213 204.503 996.975 204.293L993.42 201.149C993.182 200.939 993.033 200.825 992.972 200.809C992.905 200.787 992.814 200.825 992.701 200.925L992.116 201.435ZM1002.22 197.969C1002.57 198.436 1002.72 198.883 1002.68 199.308C1002.64 199.72 1002.46 200.107 1002.13 200.47C1001.8 200.84 1001.45 201.072 1001.08 201.167C1000.7 201.256 1000.33 201.235 999.957 201.106C999.585 200.976 999.246 200.776 998.938 200.504L996.169 198.055C995.931 197.845 995.782 197.732 995.722 197.716C995.654 197.693 995.564 197.732 995.45 197.831L994.866 198.342L994.572 198.082L995.288 197.276L994.071 196.201L994.9 194.784L996.358 196.073L997.846 194.399L998.213 194.723L996.725 196.398L1000.22 199.486C1000.66 199.881 1001.03 200.101 1001.3 200.144C1001.57 200.18 1001.78 200.111 1001.93 199.937C1002.09 199.756 1002.15 199.554 1002.09 199.333C1002.05 199.105 1001.85 198.813 1001.51 198.457L1002.22 197.969ZM1006.8 196.063C1007.1 196.613 1007.29 197.103 1007.38 197.534C1007.48 197.957 1007.47 198.361 1007.34 198.745C1007.21 199.129 1006.96 199.53 1006.59 199.949L1005.43 198.929C1005.81 198.503 1006.08 198.134 1006.25 197.82C1006.43 197.505 1006.51 197.22 1006.51 196.963C1006.51 196.705 1006.44 196.451 1006.3 196.202L1006.08 195.819L1005.6 196.364L999.838 193.927C999.634 193.833 999.485 193.776 999.391 193.756C999.296 193.722 999.22 193.716 999.162 193.74C999.11 193.756 999.046 193.8 998.971 193.87L998.386 194.381L998.092 194.121L1000.6 191.296L1000.9 191.555L1000.46 192.196C1000.39 192.286 1000.37 192.363 1000.4 192.427C1000.43 192.478 1000.6 192.573 1000.92 192.713L1005.39 194.633L1002.94 190.353C1002.78 190.078 1002.68 189.932 1002.64 189.916C1002.59 189.885 1002.51 189.916 1002.4 190.009L1001.82 190.519L1001.52 190.26L1003.3 188.261L1003.59 188.521L1003.16 189.161C1003.08 189.278 1003.04 189.373 1003.05 189.445C1003.07 189.517 1003.14 189.687 1003.29 189.955L1006.8 196.063ZM1005.89 183.535C1005.7 183.751 1005.48 183.867 1005.23 183.882C1004.97 183.891 1004.73 183.799 1004.51 183.608C1004.3 183.416 1004.18 183.195 1004.17 182.945C1004.15 182.695 1004.24 182.462 1004.43 182.246C1004.62 182.037 1004.84 181.921 1005.1 181.899C1005.35 181.877 1005.59 181.962 1005.81 182.153C1006.02 182.345 1006.14 182.572 1006.16 182.835C1006.16 183.092 1006.08 183.326 1005.89 183.535ZM1005.84 185.994L1005.55 185.735L1007.33 183.725L1011.77 187.648C1012.01 187.858 1012.16 187.975 1012.23 187.997C1012.29 188.013 1012.37 187.972 1012.49 187.872L1013.07 187.362L1013.37 187.621L1010.86 190.436L1010.57 190.177L1011.01 189.536C1011.09 189.412 1011.12 189.321 1011.1 189.263C1011.07 189.199 1010.94 189.062 1010.7 188.852L1007.14 185.708C1006.91 185.498 1006.76 185.384 1006.7 185.368C1006.63 185.346 1006.54 185.384 1006.42 185.484L1005.84 185.994ZM1013.86 183.079L1013.05 183.652C1012.53 184.021 1012.02 184.193 1011.53 184.17C1011.03 184.134 1010.59 183.939 1010.19 183.587C1009.9 183.327 1009.68 183.026 1009.55 182.685C1009.42 182.329 1009.4 181.947 1009.5 181.539C1009.59 181.123 1009.84 180.693 1010.24 180.246C1010.66 179.765 1011.09 179.442 1011.51 179.278C1011.93 179.114 1012.32 179.081 1012.68 179.178C1013.05 179.275 1013.35 179.474 1013.59 179.777L1012.78 181.113C1012.39 180.595 1012 180.299 1011.61 180.223C1011.22 180.141 1010.87 180.274 1010.56 180.623C1010.34 180.867 1010.23 181.135 1010.24 181.425C1010.24 181.709 1010.37 181.968 1010.63 182.203C1010.88 182.42 1011.16 182.542 1011.47 182.569C1011.77 182.59 1012.08 182.493 1012.38 182.276L1013.19 181.703C1013.77 181.291 1014.29 181.085 1014.76 181.084C1015.21 181.076 1015.63 181.239 1016.01 181.573C1016.47 181.987 1016.71 182.508 1016.72 183.135C1016.72 183.749 1016.42 184.397 1015.81 185.081C1015.6 185.318 1015.33 185.549 1015.01 185.773C1014.68 185.984 1014.32 186.122 1013.91 186.186C1013.51 186.243 1013.08 186.163 1012.63 185.946L1012.96 185.025C1013.46 185.384 1013.93 185.515 1014.35 185.417C1014.78 185.311 1015.15 185.091 1015.44 184.757C1015.72 184.443 1015.88 184.126 1015.91 183.807C1015.95 183.475 1015.83 183.188 1015.55 182.947C1015.36 182.78 1015.13 182.695 1014.86 182.692C1014.59 182.675 1014.26 182.804 1013.86 183.079ZM1022.49 175.16C1022.84 175.627 1022.99 176.074 1022.95 176.499C1022.91 176.911 1022.73 177.298 1022.41 177.661C1022.08 178.031 1021.73 178.263 1021.36 178.358C1020.98 178.447 1020.6 178.426 1020.23 178.297C1019.86 178.167 1019.52 177.967 1019.21 177.695L1016.44 175.246C1016.2 175.036 1016.05 174.923 1015.99 174.907C1015.93 174.885 1015.84 174.923 1015.72 175.022L1015.14 175.533L1014.84 175.273L1015.56 174.467L1014.34 173.392L1015.17 171.975L1016.63 173.264L1018.12 171.59L1018.48 171.914L1017 173.589L1020.49 176.677C1020.94 177.072 1021.3 177.292 1021.57 177.335C1021.84 177.371 1022.05 177.303 1022.2 177.128C1022.37 176.947 1022.42 176.745 1022.37 176.524C1022.32 176.296 1022.12 176.004 1021.78 175.648L1022.49 175.16ZM1029.06 169.371L1029.36 169.631L1026.85 172.445L1026.56 172.186L1027 171.545C1027.08 171.421 1027.11 171.33 1027.09 171.272C1027.06 171.208 1026.93 171.071 1026.69 170.861L1024.05 168.524C1023.56 168.097 1023.15 167.861 1022.8 167.816C1022.45 167.758 1022.16 167.868 1021.91 168.147C1021.8 168.266 1021.71 168.433 1021.63 168.649C1021.55 168.852 1021.51 169.102 1021.53 169.398C1021.54 169.688 1021.65 170.025 1021.85 170.409L1024.78 173.006C1025.02 173.216 1025.17 173.332 1025.24 173.355C1025.3 173.371 1025.39 173.329 1025.5 173.23L1026.09 172.719L1026.38 172.979L1023.88 175.794L1023.58 175.534L1024.02 174.894C1024.11 174.77 1024.14 174.679 1024.11 174.621C1024.08 174.557 1023.95 174.42 1023.71 174.209L1017.71 168.905C1017.48 168.695 1017.33 168.581 1017.27 168.565C1017.2 168.543 1017.11 168.581 1016.99 168.681L1016.41 169.191L1016.12 168.932L1017.9 166.922L1021.16 169.807C1021.02 169.32 1021.01 168.862 1021.13 168.432C1021.26 167.995 1021.46 167.623 1021.73 167.316C1022.19 166.8 1022.71 166.537 1023.31 166.528C1023.9 166.518 1024.5 166.779 1025.1 167.311L1027.76 169.657C1028 169.868 1028.15 169.984 1028.22 170.006C1028.28 170.022 1028.36 169.981 1028.48 169.882L1029.06 169.371ZM1032.62 163.45C1033 164.008 1033.14 164.551 1033.05 165.078C1032.94 165.599 1032.69 166.087 1032.29 166.54C1031.55 167.377 1030.75 167.792 1029.89 167.784C1029.03 167.769 1028.2 167.407 1027.39 166.696L1027.18 166.51C1026.38 165.799 1025.91 165.035 1025.77 164.218C1025.65 163.394 1025.91 162.609 1026.58 161.862C1026.95 161.444 1027.36 161.148 1027.81 160.975C1028.27 160.79 1028.73 160.742 1029.2 160.833C1029.67 160.917 1030.13 161.153 1030.57 161.543C1030.67 161.635 1030.78 161.741 1030.89 161.86C1031 161.972 1031.1 162.095 1031.2 162.228L1028.44 165.325L1028.75 165.594C1029.49 166.25 1030.12 166.618 1030.63 166.699C1031.14 166.774 1031.6 166.578 1032.02 166.111C1032.28 165.811 1032.42 165.479 1032.43 165.115C1032.44 164.745 1032.24 164.357 1031.84 163.952L1032.62 163.45ZM1026.94 162.187C1026.64 162.528 1026.57 162.922 1026.74 163.368C1026.9 163.813 1027.35 164.358 1028.08 165.001L1029.76 163.107C1029.64 162.955 1029.53 162.823 1029.42 162.711C1029.3 162.586 1029.19 162.477 1029.09 162.384C1028.64 161.989 1028.24 161.785 1027.87 161.774C1027.51 161.763 1027.2 161.901 1026.94 162.187ZM1041.66 155.201L1041.95 155.46L1040.22 157.407L1039.3 156.591C1039.48 157.101 1039.52 157.584 1039.41 158.04C1039.3 158.489 1039.11 158.87 1038.83 159.184C1038.39 159.68 1037.87 159.928 1037.28 159.931C1036.69 159.927 1036.09 159.663 1035.5 159.137L1032.84 156.791C1032.61 156.581 1032.46 156.467 1032.4 156.451C1032.33 156.429 1032.24 156.467 1032.13 156.567L1031.54 157.077L1031.25 156.818L1033.03 154.808L1036.56 157.924C1037.04 158.351 1037.45 158.597 1037.79 158.662C1038.13 158.714 1038.42 158.611 1038.65 158.353C1038.75 158.242 1038.83 158.088 1038.91 157.892C1038.98 157.683 1039.01 157.433 1038.99 157.144C1038.97 156.848 1038.86 156.515 1038.66 156.143L1035.73 153.547C1035.49 153.337 1035.34 153.22 1035.27 153.198C1035.2 153.176 1035.11 153.217 1035.01 153.323L1034.24 154.043L1033.94 153.783L1035.92 151.564L1040.35 155.487C1040.59 155.697 1040.74 155.814 1040.81 155.836C1040.87 155.852 1040.96 155.811 1041.07 155.711L1041.66 155.201ZM1034.78 148.518L1034.49 148.258L1036.28 146.249L1043.16 152.333C1043.39 152.543 1043.55 152.659 1043.61 152.682C1043.67 152.698 1043.76 152.656 1043.87 152.557L1044.46 152.046L1044.75 152.306L1042.25 155.121L1041.96 154.861L1042.4 154.221C1042.48 154.097 1042.51 154.006 1042.49 153.948C1042.46 153.884 1042.32 153.746 1042.09 153.536L1036.09 148.232C1035.85 148.022 1035.7 147.908 1035.64 147.892C1035.57 147.87 1035.48 147.908 1035.37 148.008L1034.78 148.518ZM1047.33 147.21C1047.68 147.678 1047.83 148.125 1047.79 148.55C1047.75 148.962 1047.57 149.349 1047.25 149.712C1046.92 150.081 1046.57 150.314 1046.2 150.409C1045.82 150.498 1045.44 150.477 1045.07 150.348C1044.7 150.218 1044.36 150.018 1044.05 149.746L1041.28 147.297C1041.04 147.087 1040.89 146.974 1040.83 146.958C1040.77 146.935 1040.68 146.974 1040.56 147.073L1039.98 147.584L1039.68 147.324L1040.4 146.518L1039.18 145.443L1040.01 144.026L1041.47 145.315L1042.96 143.641L1043.33 143.965L1041.84 145.639L1045.33 148.728C1045.78 149.123 1046.14 149.343 1046.41 149.386C1046.68 149.422 1046.89 149.353 1047.05 149.179C1047.21 148.998 1047.26 148.796 1047.21 148.575C1047.16 148.347 1046.96 148.055 1046.62 147.699L1047.33 147.21ZM1043.81 140.87C1043.62 141.087 1043.4 141.202 1043.15 141.217C1042.89 141.226 1042.65 141.135 1042.43 140.943C1042.22 140.751 1042.1 140.531 1042.09 140.281C1042.07 140.031 1042.16 139.797 1042.35 139.581C1042.54 139.372 1042.76 139.256 1043.02 139.234C1043.27 139.212 1043.51 139.297 1043.73 139.489C1043.94 139.68 1044.06 139.908 1044.08 140.171C1044.08 140.428 1044 140.661 1043.81 140.87ZM1043.76 143.33L1043.47 143.07L1045.25 141.061L1049.69 144.984C1049.93 145.194 1050.08 145.31 1050.15 145.332C1050.21 145.349 1050.29 145.307 1050.41 145.208L1050.99 144.697L1051.28 144.957L1048.78 147.772L1048.49 147.512L1048.93 146.872C1049.01 146.748 1049.04 146.657 1049.02 146.599C1048.99 146.534 1048.86 146.397 1048.62 146.187L1045.06 143.043C1044.82 142.833 1044.68 142.72 1044.62 142.704C1044.55 142.681 1044.46 142.72 1044.34 142.819L1043.76 143.33ZM1056.74 138.234L1057.03 138.494L1054.53 141.309L1054.23 141.049L1054.67 140.409C1054.76 140.285 1054.79 140.194 1054.76 140.136C1054.73 140.071 1054.6 139.934 1054.36 139.724L1051.72 137.387C1051.24 136.96 1050.83 136.718 1050.49 136.659C1050.15 136.593 1049.86 136.693 1049.63 136.958C1049.53 137.07 1049.44 137.23 1049.37 137.439C1049.29 137.642 1049.26 137.889 1049.27 138.178C1049.3 138.461 1049.41 138.79 1049.61 139.168L1052.55 141.765C1052.79 141.975 1052.94 142.091 1053.01 142.113C1053.07 142.13 1053.15 142.088 1053.27 141.989L1053.85 141.478L1054.15 141.738L1051.64 144.553L1051.35 144.293L1051.79 143.653C1051.87 143.529 1051.9 143.438 1051.88 143.38C1051.85 143.315 1051.72 143.178 1051.48 142.968L1047.92 139.824C1047.69 139.614 1047.54 139.501 1047.48 139.485C1047.41 139.462 1047.32 139.501 1047.2 139.6L1046.62 140.111L1046.33 139.851L1048.06 137.905L1048.98 138.721C1048.8 138.21 1048.76 137.73 1048.87 137.281C1048.98 136.826 1049.17 136.441 1049.45 136.127C1049.78 135.75 1050.16 135.52 1050.59 135.435C1051.01 135.336 1051.45 135.389 1051.91 135.593C1051.68 135.058 1051.63 134.553 1051.74 134.078C1051.85 133.602 1052.05 133.204 1052.33 132.883C1052.77 132.388 1053.29 132.139 1053.88 132.137C1054.46 132.134 1055.06 132.399 1055.66 132.93L1058.31 135.277C1058.55 135.487 1058.71 135.603 1058.77 135.626C1058.83 135.642 1058.92 135.6 1059.03 135.501L1059.62 134.99L1059.91 135.25L1057.41 138.065L1057.12 137.805L1057.55 137.165C1057.64 137.041 1057.67 136.95 1057.65 136.892C1057.62 136.827 1057.48 136.69 1057.25 136.48L1054.6 134.143C1054.12 133.717 1053.71 133.474 1053.38 133.415C1053.04 133.349 1052.75 133.449 1052.51 133.714C1052.41 133.826 1052.33 133.986 1052.25 134.195C1052.17 134.398 1052.14 134.648 1052.17 134.943C1052.19 135.239 1052.31 135.579 1052.52 135.962C1052.56 135.986 1052.6 136.02 1052.65 136.063C1052.69 136.1 1052.74 136.137 1052.78 136.174L1055.43 138.521C1055.67 138.731 1055.82 138.847 1055.89 138.869C1055.95 138.886 1056.04 138.844 1056.15 138.745L1056.74 138.234ZM1064.71 129.327C1064.71 129.531 1064.68 129.745 1064.61 129.967C1064.54 130.182 1064.41 130.402 1064.21 130.625C1063.96 130.911 1063.68 131.096 1063.38 131.18C1063.09 131.257 1062.8 131.225 1062.51 131.084C1062.56 131.536 1062.52 131.955 1062.39 132.339C1062.26 132.71 1062.06 133.039 1061.81 133.325C1061.38 133.806 1060.93 134.048 1060.45 134.05C1059.97 134.046 1059.53 133.865 1059.12 133.506C1058.71 133.142 1058.51 132.698 1058.52 132.175C1058.53 131.647 1058.87 131.002 1059.55 130.242L1060.4 129.289L1059.55 128.538C1058.97 128.025 1058.5 127.752 1058.16 127.721C1057.81 127.675 1057.52 127.785 1057.28 128.05C1057.13 128.225 1057.03 128.425 1056.99 128.652C1056.94 128.873 1057.01 129.12 1057.19 129.393C1057.38 129.653 1057.72 129.939 1058.23 130.252L1057.04 131.254C1056.67 131.026 1056.4 130.728 1056.24 130.362C1056.08 129.982 1056.05 129.564 1056.15 129.109C1056.25 128.647 1056.51 128.179 1056.93 127.705C1057.41 127.168 1057.87 126.83 1058.3 126.692C1058.74 126.553 1059.15 126.555 1059.53 126.697C1059.93 126.832 1060.29 127.044 1060.62 127.335L1063.04 129.477C1063.4 129.792 1063.65 129.959 1063.79 129.976C1063.94 129.994 1064.05 129.964 1064.12 129.888C1064.23 129.762 1064.28 129.558 1064.27 129.274L1064.71 129.327ZM1061.66 132.373C1061.82 132.191 1061.94 131.973 1062 131.718C1062.07 131.45 1062.05 131.104 1061.97 130.68L1060.76 129.614L1060.07 130.399C1059.76 130.741 1059.62 131.059 1059.65 131.355C1059.67 131.651 1059.85 131.95 1060.2 132.253C1060.48 132.5 1060.74 132.636 1061 132.66C1061.25 132.685 1061.47 132.589 1061.66 132.373ZM1067.45 124.575C1067.8 125.043 1067.95 125.489 1067.91 125.915C1067.87 126.326 1067.69 126.714 1067.36 127.076C1067.03 127.446 1066.68 127.679 1066.31 127.774C1065.93 127.862 1065.56 127.842 1065.19 127.713C1064.82 127.583 1064.48 127.382 1064.17 127.11L1061.4 124.662C1061.16 124.452 1061.01 124.339 1060.95 124.323C1060.88 124.3 1060.79 124.339 1060.68 124.438L1060.1 124.949L1059.8 124.689L1060.52 123.883L1059.3 122.807L1060.13 121.391L1061.59 122.68L1063.08 121.005L1063.44 121.33L1061.95 123.004L1065.45 126.092C1065.89 126.488 1066.26 126.707 1066.53 126.75C1066.8 126.787 1067.01 126.718 1067.16 126.544C1067.32 126.362 1067.38 126.161 1067.32 125.94C1067.28 125.711 1067.08 125.42 1066.74 125.064L1067.45 124.575ZM1071.85 119.314C1072.22 119.872 1072.37 120.415 1072.27 120.942C1072.17 121.463 1071.92 121.95 1071.52 122.404C1070.77 123.241 1069.97 123.656 1069.12 123.648C1068.26 123.633 1067.42 123.271 1066.62 122.56L1066.41 122.374C1065.61 121.663 1065.14 120.899 1065 120.082C1064.87 119.258 1065.14 118.472 1065.8 117.726C1066.18 117.307 1066.59 117.012 1067.04 116.839C1067.49 116.654 1067.95 116.606 1068.42 116.697C1068.9 116.78 1069.36 117.017 1069.8 117.406C1069.9 117.499 1070.01 117.605 1070.11 117.724C1070.23 117.836 1070.33 117.959 1070.42 118.092L1067.67 121.189L1067.97 121.458C1068.72 122.113 1069.34 122.482 1069.86 122.563C1070.37 122.638 1070.83 122.442 1071.24 121.975C1071.51 121.675 1071.65 121.343 1071.66 120.979C1071.66 120.609 1071.46 120.221 1071.06 119.816L1071.85 119.314ZM1066.17 118.051C1065.87 118.392 1065.8 118.786 1065.96 119.232C1066.13 119.677 1066.58 120.222 1067.3 120.865L1068.99 118.971C1068.87 118.819 1068.76 118.687 1068.64 118.575C1068.53 118.45 1068.42 118.341 1068.32 118.248C1067.87 117.853 1067.46 117.649 1067.1 117.638C1066.73 117.627 1066.42 117.765 1066.17 118.051ZM999.973 224.297L999.164 224.87C998.636 225.239 998.127 225.411 997.636 225.388C997.144 225.352 996.698 225.157 996.3 224.805C996.006 224.545 995.793 224.244 995.66 223.902C995.526 223.547 995.509 223.165 995.611 222.756C995.705 222.341 995.95 221.911 996.347 221.464C996.775 220.983 997.199 220.66 997.619 220.496C998.04 220.332 998.432 220.299 998.795 220.396C999.158 220.493 999.462 220.692 999.705 220.995L998.892 222.331C998.503 221.813 998.111 221.516 997.716 221.441C997.327 221.359 996.978 221.492 996.668 221.841C996.451 222.085 996.344 222.352 996.348 222.643C996.346 222.927 996.477 223.186 996.743 223.421C996.988 223.638 997.266 223.76 997.579 223.787C997.885 223.808 998.19 223.711 998.495 223.494L999.304 222.92C999.882 222.509 1000.4 222.303 1000.87 222.302C1001.32 222.294 1001.74 222.457 1002.12 222.791C1002.59 223.205 1002.82 223.726 1002.83 224.353C1002.83 224.967 1002.53 225.615 1001.92 226.299C1001.71 226.536 1001.44 226.767 1001.12 226.991C1000.79 227.202 1000.43 227.34 1000.02 227.404C999.621 227.461 999.192 227.381 998.736 227.164L999.067 226.243C999.572 226.602 1000.04 226.733 1000.46 226.634C1000.89 226.529 1001.26 226.309 1001.55 225.974C1001.83 225.66 1001.99 225.344 1002.02 225.025C1002.06 224.693 1001.94 224.406 1001.66 224.165C1001.47 223.998 1001.24 223.913 1000.97 223.91C1000.7 223.893 1000.37 224.022 999.973 224.297ZM1006.06 215.863L1006.27 216.049C1007.08 216.759 1007.54 217.541 1007.66 218.392C1007.77 219.23 1007.49 220.033 1006.81 220.8C1006.13 221.568 1005.36 221.947 1004.5 221.939C1003.65 221.918 1002.82 221.552 1002.01 220.841L1001.8 220.656C1001 219.945 1000.54 219.17 1000.42 218.332C1000.31 217.487 1000.6 216.681 1001.28 215.913C1001.96 215.146 1002.73 214.77 1003.58 214.785C1004.43 214.793 1005.26 215.152 1006.06 215.863ZM1004.71 216.965C1003.96 216.303 1003.35 215.927 1002.86 215.838C1002.38 215.742 1001.97 215.875 1001.65 216.238C1001.33 216.594 1001.25 217.011 1001.4 217.491C1001.54 217.958 1001.99 218.522 1002.74 219.183L1003.37 219.74C1004.11 220.395 1004.73 220.774 1005.22 220.876C1005.72 220.965 1006.12 220.832 1006.44 220.476C1006.76 220.113 1006.85 219.695 1006.69 219.222C1006.53 218.744 1006.08 218.176 1005.34 217.521L1004.71 216.965ZM1004.44 213.163L1004.14 212.903L1005.87 210.957L1006.74 211.726C1006.59 211.233 1006.55 210.797 1006.6 210.418C1006.65 210.039 1006.82 209.685 1007.11 209.357C1007.63 208.771 1008.27 208.514 1009.05 208.587C1009.82 208.646 1010.62 209.046 1011.46 209.788L1011.67 209.974C1012.48 210.691 1012.95 211.462 1013.08 212.286C1013.21 213.11 1012.96 213.874 1012.34 214.579C1011.97 214.998 1011.53 215.275 1011.04 215.41L1012.6 216.792C1012.84 217.002 1012.99 217.115 1013.05 217.131C1013.11 217.154 1013.2 217.115 1013.32 217.016L1014.09 216.296L1014.38 216.556L1011.69 219.58L1011.4 219.32L1011.84 218.68C1011.92 218.556 1011.95 218.462 1011.92 218.398C1011.9 218.34 1011.77 218.205 1011.53 217.995L1005.74 212.876C1005.5 212.666 1005.35 212.553 1005.29 212.537C1005.23 212.514 1005.14 212.553 1005.02 212.652L1004.44 213.163ZM1007.33 210.037C1007.17 210.212 1007.08 210.461 1007.05 210.786C1007.03 211.098 1007.13 211.561 1007.38 212.174L1010.54 214.974C1011.05 214.944 1011.47 214.737 1011.81 214.353C1012.15 213.963 1012.23 213.532 1012.04 213.062C1011.84 212.578 1011.44 212.071 1010.84 211.539L1010 210.797C1009.35 210.222 1008.81 209.882 1008.36 209.777C1007.92 209.671 1007.58 209.758 1007.33 210.037ZM1020.09 205.06L1020.38 205.32L1017.88 208.135L1017.58 207.875L1018.02 207.235C1018.11 207.111 1018.14 207.02 1018.11 206.962C1018.08 206.898 1017.95 206.76 1017.71 206.55L1015.07 204.213C1014.59 203.787 1014.17 203.551 1013.83 203.506C1013.48 203.447 1013.18 203.558 1012.93 203.837C1012.83 203.955 1012.73 204.123 1012.65 204.339C1012.57 204.542 1012.54 204.791 1012.55 205.088C1012.57 205.377 1012.67 205.714 1012.87 206.099L1015.81 208.695C1016.04 208.906 1016.2 209.022 1016.26 209.044C1016.32 209.06 1016.41 209.019 1016.52 208.92L1017.11 208.409L1017.4 208.669L1014.9 211.483L1014.61 211.224L1015.05 210.583C1015.13 210.459 1015.16 210.368 1015.14 210.31C1015.11 210.246 1014.97 210.109 1014.74 209.899L1008.74 204.594C1008.5 204.384 1008.35 204.271 1008.29 204.255C1008.22 204.232 1008.13 204.271 1008.02 204.37L1007.43 204.881L1007.14 204.621L1008.93 202.612L1012.19 205.496C1012.05 205.009 1012.03 204.551 1012.15 204.121C1012.28 203.684 1012.48 203.313 1012.75 203.006C1013.21 202.489 1013.74 202.227 1014.33 202.217C1014.93 202.208 1015.53 202.469 1016.13 203.001L1018.78 205.347C1019.02 205.557 1019.17 205.673 1019.24 205.696C1019.3 205.712 1019.39 205.67 1019.5 205.571L1020.09 205.06ZM1015.72 198.061C1015.53 198.277 1015.31 198.392 1015.06 198.408C1014.8 198.416 1014.56 198.325 1014.35 198.133C1014.13 197.942 1014.02 197.721 1014 197.471C1013.99 197.221 1014.07 196.988 1014.27 196.772C1014.45 196.562 1014.67 196.447 1014.93 196.425C1015.19 196.402 1015.42 196.487 1015.64 196.679C1015.86 196.871 1015.97 197.098 1015.99 197.361C1016 197.618 1015.91 197.851 1015.72 198.061ZM1015.67 200.52L1015.38 200.26L1017.17 198.251L1021.6 202.174C1021.84 202.384 1021.99 202.5 1022.06 202.523C1022.12 202.539 1022.21 202.497 1022.32 202.398L1022.91 201.887L1023.2 202.147L1020.7 204.962L1020.4 204.702L1020.84 204.062C1020.93 203.938 1020.96 203.847 1020.93 203.789C1020.9 203.725 1020.77 203.587 1020.53 203.377L1016.98 200.234C1016.74 200.023 1016.59 199.91 1016.53 199.894C1016.46 199.872 1016.37 199.91 1016.26 200.009L1015.67 200.52ZM1023.7 197.604L1022.89 198.178C1022.36 198.547 1021.85 198.719 1021.36 198.696C1020.87 198.659 1020.42 198.465 1020.02 198.113C1019.73 197.853 1019.52 197.552 1019.38 197.21C1019.25 196.855 1019.23 196.473 1019.33 196.064C1019.43 195.649 1019.67 195.218 1020.07 194.772C1020.5 194.291 1020.92 193.968 1021.34 193.804C1021.76 193.64 1022.16 193.607 1022.52 193.704C1022.88 193.801 1023.19 194 1023.43 194.302L1022.62 195.639C1022.23 195.121 1021.83 194.824 1021.44 194.749C1021.05 194.667 1020.7 194.8 1020.39 195.149C1020.17 195.393 1020.07 195.66 1020.07 195.951C1020.07 196.235 1020.2 196.494 1020.47 196.729C1020.71 196.945 1020.99 197.067 1021.3 197.095C1021.61 197.116 1021.91 197.018 1022.22 196.802L1023.03 196.228C1023.61 195.817 1024.13 195.611 1024.59 195.609C1025.05 195.602 1025.46 195.765 1025.84 196.099C1026.31 196.513 1026.55 197.034 1026.55 197.661C1026.55 198.274 1026.25 198.923 1025.64 199.607C1025.43 199.844 1025.17 200.075 1024.84 200.299C1024.52 200.51 1024.15 200.648 1023.74 200.712C1023.34 200.769 1022.92 200.689 1022.46 200.472L1022.79 199.551C1023.3 199.91 1023.76 200.04 1024.18 199.942C1024.62 199.837 1024.98 199.617 1025.28 199.282C1025.56 198.968 1025.71 198.652 1025.75 198.333C1025.78 198.001 1025.66 197.714 1025.39 197.473C1025.2 197.306 1024.97 197.221 1024.7 197.217C1024.42 197.201 1024.09 197.33 1023.7 197.604ZM1030.25 192.025C1030.59 192.493 1030.75 192.94 1030.71 193.365C1030.66 193.777 1030.48 194.164 1030.16 194.527C1029.83 194.896 1029.48 195.129 1029.11 195.224C1028.73 195.313 1028.36 195.292 1027.98 195.163C1027.61 195.033 1027.27 194.833 1026.96 194.561L1024.19 192.112C1023.96 191.902 1023.81 191.789 1023.75 191.773C1023.68 191.75 1023.59 191.789 1023.48 191.888L1022.89 192.399L1022.6 192.139L1023.31 191.333L1022.1 190.258L1022.93 188.841L1024.38 190.13L1025.87 188.456L1026.24 188.78L1024.75 190.455L1028.24 193.543C1028.69 193.938 1029.05 194.158 1029.33 194.201C1029.59 194.237 1029.8 194.168 1029.96 193.994C1030.12 193.813 1030.17 193.611 1030.12 193.39C1030.07 193.162 1029.88 192.87 1029.53 192.514L1030.25 192.025ZM1026.72 185.685C1026.53 185.902 1026.31 186.017 1026.06 186.032C1025.8 186.041 1025.56 185.95 1025.35 185.758C1025.13 185.567 1025.01 185.346 1025 185.096C1024.98 184.846 1025.07 184.613 1025.27 184.396C1025.45 184.187 1025.67 184.071 1025.93 184.049C1026.19 184.027 1026.42 184.112 1026.64 184.304C1026.86 184.495 1026.97 184.723 1026.99 184.986C1027 185.243 1026.91 185.476 1026.72 185.685ZM1026.67 188.145L1026.38 187.885L1028.16 185.876L1032.6 189.799C1032.84 190.009 1032.99 190.125 1033.06 190.147C1033.12 190.164 1033.21 190.122 1033.32 190.023L1033.9 189.512L1034.2 189.772L1031.7 192.587L1031.4 192.327L1031.84 191.687C1031.93 191.563 1031.96 191.472 1031.93 191.414C1031.9 191.349 1031.77 191.212 1031.53 191.002L1027.98 187.858C1027.74 187.648 1027.59 187.535 1027.53 187.519C1027.46 187.496 1027.37 187.535 1027.26 187.634L1026.67 188.145ZM1031.81 182.303C1031.51 182.638 1031.45 183.031 1031.62 183.483C1031.79 183.921 1032.25 184.471 1033 185.133L1033.63 185.689C1034.37 186.345 1034.99 186.723 1035.49 186.826C1035.98 186.922 1036.41 186.757 1036.79 186.331C1037.07 186.017 1037.21 185.686 1037.2 185.336C1037.2 184.973 1037 184.589 1036.6 184.184L1037.38 183.681C1037.76 184.239 1037.91 184.778 1037.82 185.299C1037.73 185.806 1037.49 186.283 1037.09 186.729C1036.38 187.532 1035.6 187.922 1034.76 187.9C1033.91 187.872 1033.08 187.502 1032.28 186.791L1032.07 186.606C1031.26 185.895 1030.79 185.13 1030.66 184.313C1030.52 183.496 1030.78 182.718 1031.44 181.978C1031.88 181.49 1032.33 181.179 1032.8 181.045C1033.26 180.898 1033.71 180.901 1034.14 181.053C1034.56 181.193 1034.92 181.452 1035.23 181.83L1034.37 183.129C1033.85 182.533 1033.37 182.163 1032.92 182.018C1032.48 181.873 1032.11 181.968 1031.81 182.303ZM1043.72 178.536C1043.72 178.741 1043.69 178.954 1043.62 179.176C1043.55 179.391 1043.42 179.611 1043.22 179.834C1042.96 180.12 1042.69 180.305 1042.39 180.389C1042.09 180.466 1041.8 180.434 1041.52 180.293C1041.56 180.746 1041.52 181.164 1041.39 181.548C1041.26 181.919 1041.07 182.248 1040.82 182.534C1040.39 183.015 1039.94 183.257 1039.46 183.259C1038.98 183.255 1038.53 183.074 1038.13 182.715C1037.72 182.351 1037.52 181.907 1037.53 181.385C1037.54 180.856 1037.88 180.211 1038.56 179.451L1039.4 178.499L1038.55 177.747C1037.97 177.234 1037.51 176.962 1037.16 176.93C1036.82 176.885 1036.53 176.995 1036.29 177.26C1036.14 177.434 1036.04 177.635 1036 177.862C1035.95 178.082 1036.02 178.329 1036.2 178.602C1036.38 178.862 1036.73 179.148 1037.24 179.461L1036.05 180.464C1035.68 180.235 1035.41 179.937 1035.25 179.571C1035.09 179.191 1035.06 178.773 1035.16 178.318C1035.26 177.856 1035.52 177.389 1035.94 176.914C1036.42 176.377 1036.88 176.039 1037.31 175.901C1037.75 175.762 1038.16 175.764 1038.54 175.906C1038.93 176.041 1039.3 176.253 1039.62 176.544L1042.05 178.686C1042.4 179.002 1042.65 179.168 1042.8 179.186C1042.95 179.203 1043.06 179.174 1043.12 179.097C1043.24 178.971 1043.29 178.767 1043.28 178.483L1043.72 178.536ZM1040.67 181.582C1040.83 181.4 1040.95 181.182 1041.01 180.928C1041.07 180.66 1041.06 180.314 1040.98 179.89L1039.77 178.823L1039.07 179.608C1038.77 179.95 1038.63 180.269 1038.65 180.564C1038.68 180.86 1038.86 181.159 1039.2 181.462C1039.48 181.709 1039.75 181.845 1040 181.87C1040.26 181.894 1040.48 181.798 1040.67 181.582ZM1046.46 173.784C1046.81 174.252 1046.96 174.699 1046.92 175.124C1046.88 175.536 1046.69 175.923 1046.37 176.286C1046.04 176.655 1045.69 176.888 1045.32 176.983C1044.94 177.072 1044.57 177.051 1044.2 176.922C1043.82 176.792 1043.48 176.592 1043.18 176.32L1040.41 173.871C1040.17 173.661 1040.02 173.548 1039.96 173.532C1039.89 173.509 1039.8 173.548 1039.69 173.647L1039.1 174.158L1038.81 173.898L1039.53 173.092L1038.31 172.017L1039.14 170.6L1040.6 171.889L1042.08 170.215L1042.45 170.539L1040.96 172.213L1044.46 175.302C1044.9 175.697 1045.26 175.917 1045.54 175.96C1045.8 175.996 1046.02 175.927 1046.17 175.753C1046.33 175.572 1046.39 175.37 1046.33 175.149C1046.29 174.921 1046.09 174.629 1045.74 174.273L1046.46 173.784ZM1042.94 167.444C1042.74 167.661 1042.52 167.776 1042.27 167.791C1042.01 167.8 1041.78 167.709 1041.56 167.517C1041.34 167.325 1041.23 167.105 1041.21 166.855C1041.2 166.605 1041.29 166.371 1041.48 166.155C1041.66 165.946 1041.88 165.83 1042.14 165.808C1042.4 165.786 1042.64 165.871 1042.85 166.063C1043.07 166.254 1043.19 166.482 1043.2 166.745C1043.21 167.002 1043.12 167.235 1042.94 167.444ZM1042.88 169.904L1042.59 169.644L1044.38 167.635L1048.81 171.558C1049.05 171.768 1049.2 171.884 1049.27 171.906C1049.33 171.923 1049.42 171.881 1049.53 171.782L1050.12 171.271L1050.41 171.531L1047.91 174.346L1047.61 174.086L1048.05 173.446C1048.14 173.322 1048.17 173.231 1048.15 173.173C1048.12 173.108 1047.98 172.971 1047.74 172.761L1044.19 169.617C1043.95 169.407 1043.8 169.294 1043.74 169.278C1043.67 169.255 1043.58 169.294 1043.47 169.393L1042.88 169.904ZM1052.53 163.582L1052.74 163.768C1053.54 164.479 1054 165.26 1054.12 166.111C1054.24 166.949 1053.96 167.752 1053.27 168.52C1052.59 169.287 1051.82 169.667 1050.97 169.659C1050.11 169.638 1049.28 169.271 1048.48 168.56L1048.27 168.375C1047.47 167.664 1047.01 166.889 1046.89 166.051C1046.78 165.206 1047.06 164.4 1047.75 163.632C1048.43 162.865 1049.19 162.489 1050.04 162.504C1050.9 162.512 1051.73 162.871 1052.53 163.582ZM1051.18 164.684C1050.43 164.022 1049.81 163.647 1049.33 163.557C1048.84 163.461 1048.44 163.594 1048.11 163.957C1047.8 164.313 1047.71 164.731 1047.86 165.21C1048.01 165.677 1048.46 166.241 1049.2 166.902L1049.83 167.459C1050.57 168.114 1051.19 168.493 1051.69 168.595C1052.18 168.684 1052.59 168.551 1052.91 168.195C1053.23 167.832 1053.31 167.415 1053.16 166.942C1053 166.463 1052.55 165.896 1051.81 165.24L1051.18 164.684ZM1061.18 158.828L1061.47 159.087L1058.97 161.902L1058.67 161.642L1059.11 161.002C1059.2 160.878 1059.23 160.787 1059.21 160.729C1059.17 160.665 1059.04 160.528 1058.8 160.317L1056.16 157.98C1055.68 157.554 1055.26 157.318 1054.92 157.273C1054.57 157.215 1054.27 157.325 1054.02 157.604C1053.92 157.723 1053.82 157.89 1053.74 158.106C1053.66 158.309 1053.63 158.559 1053.64 158.855C1053.66 159.145 1053.76 159.482 1053.96 159.866L1056.9 162.463C1057.13 162.673 1057.29 162.789 1057.35 162.811C1057.41 162.828 1057.5 162.786 1057.61 162.687L1058.2 162.176L1058.49 162.436L1055.99 165.251L1055.7 164.991L1056.14 164.351C1056.22 164.227 1056.25 164.136 1056.23 164.078C1056.2 164.013 1056.06 163.876 1055.83 163.666L1052.27 160.522C1052.03 160.312 1051.88 160.199 1051.82 160.183C1051.76 160.16 1051.67 160.199 1051.55 160.298L1050.97 160.809L1050.67 160.549L1052.4 158.603L1053.33 159.419C1053.15 158.901 1053.12 158.414 1053.24 157.958C1053.36 157.489 1053.56 157.094 1053.84 156.773C1054.3 156.257 1054.83 155.994 1055.42 155.984C1056.02 155.975 1056.62 156.236 1057.22 156.768L1059.87 159.114C1060.11 159.324 1060.26 159.44 1060.33 159.463C1060.39 159.479 1060.48 159.437 1060.59 159.338L1061.18 158.828ZM1062.86 157.735C1062.67 157.952 1062.44 158.071 1062.18 158.093C1061.93 158.102 1061.69 158.007 1061.46 157.809C1061.24 157.612 1061.12 157.388 1061.1 157.138C1061.1 156.881 1061.19 156.644 1061.38 156.428C1061.57 156.212 1061.8 156.092 1062.05 156.07C1062.31 156.048 1062.55 156.136 1062.77 156.334C1063 156.532 1063.12 156.762 1063.13 157.026C1063.14 157.283 1063.05 157.519 1062.86 157.735Z" fill="#4469AE" fill-opacity="0.57"/>
<g filter="url(#filter0_f_203_230)">
<path d="M745.015 296.043C744.922 296.157 744.82 296.28 744.709 296.409C743.78 297.502 742.248 299.132 739.92 301.137C735.266 305.146 727.417 310.674 714.83 316.429C702.337 322.14 693.136 323.672 687.188 323.835C684.21 323.917 682.03 323.655 680.642 323.394C680.37 323.342 680.128 323.289 679.916 323.24L650.889 253.061C650.929 253.055 650.969 253.049 651.01 253.043C653.468 252.662 656.89 252.095 660.753 251.346C668.421 249.858 678.035 247.615 685.252 244.63C692.469 241.645 700.858 236.441 707.336 232.078C710.6 229.88 713.424 227.864 715.433 226.397C715.474 226.367 715.514 226.336 715.554 226.306L745.015 296.043Z" stroke="#4469AE" stroke-width="6"/>
<path d="M679.595 230.952C689.13 227.008 698.064 224.424 704.758 223.397C708.128 222.88 710.761 222.786 712.557 223.025C713.489 223.149 713.974 223.329 714.21 223.446C714.125 223.694 713.91 224.165 713.337 224.912C712.235 226.35 710.305 228.142 707.554 230.157C702.091 234.159 693.942 238.641 684.406 242.585C674.871 246.529 665.936 249.113 659.243 250.139C655.873 250.656 653.24 250.751 651.444 250.511C650.51 250.387 650.025 250.207 649.79 250.09C649.874 249.842 650.091 249.372 650.664 248.625C651.766 247.187 653.696 245.394 656.447 243.379C661.91 239.378 670.059 234.896 679.595 230.952Z" stroke="#4469AE" stroke-width="6"/>
<path d="M710.119 304.751C719.654 300.807 728.588 298.223 735.282 297.197C738.652 296.68 741.285 296.585 743.081 296.824C744.013 296.949 744.498 297.129 744.733 297.245C744.649 297.494 744.434 297.964 743.861 298.711C742.759 300.149 740.828 301.942 738.078 303.957C732.615 307.959 724.466 312.44 714.93 316.384C705.395 320.328 696.46 322.913 689.767 323.939C686.396 324.456 683.764 324.55 681.968 324.311C681.034 324.187 680.549 324.006 680.313 323.89C680.398 323.641 680.615 323.172 681.188 322.424C682.29 320.986 684.22 319.194 686.971 317.179C692.433 313.177 700.583 308.695 710.119 304.751Z" stroke="#4469AE" stroke-width="6"/>
</g>
<path d="M604.977 297.744C609.286 295.107 614.727 298.65 614.057 303.658L602.115 392.894C601.676 396.179 598.657 398.485 595.373 398.046L485.526 383.347C479.927 382.597 478.372 375.231 483.19 372.282L604.977 297.744Z" stroke="#4469AE" stroke-width="6"/>
<g filter="url(#filter1_f_203_230)">
<rect x="563.591" y="202.652" width="52.6271" height="52.6271" rx="10" transform="rotate(14.4081 563.591 202.652)" stroke="#4469AE" stroke-width="6"/>
</g>
<g filter="url(#filter2_f_203_230)">
<path d="M674.125 383.519C675.857 375.231 685.912 371.925 692.225 377.569L711.537 394.836C717.849 400.48 715.684 410.841 707.64 413.486L683.031 421.576C674.986 424.221 667.096 417.166 668.828 408.877L674.125 383.519Z" stroke="#4469AE" stroke-width="6"/>
</g>
<g filter="url(#filter3_f_203_230)">
<circle cx="493.96" cy="283.891" r="15.8313" stroke="#4469AE" stroke-width="4"/>
</g>
<defs>
<filter id="filter0_f_203_230" x="644.644" y="217.9" width="105.803" height="111.536" filterUnits="userSpaceOnUse" color-interpolation-filters="sRGB">
<feFlood flood-opacity="0" result="BackgroundImageFix"/>
<feBlend mode="normal" in="SourceGraphic" in2="BackgroundImageFix" result="shape"/>
<feGaussianBlur stdDeviation="1" result="effect1_foregroundBlur_203_230"/>
</filter>
<filter id="filter1_f_203_230" x="543.667" y="195.823" width="77.7256" height="77.7257" filterUnits="userSpaceOnUse" color-interpolation-filters="sRGB">
<feFlood flood-opacity="0" result="BackgroundImageFix"/>
<feBlend mode="normal" in="SourceGraphic" in2="BackgroundImageFix" result="shape"/>
<feGaussianBlur stdDeviation="3" result="effect1_foregroundBlur_203_230"/>
</filter>
<filter id="filter2_f_203_230" x="658.784" y="364.957" width="66.2265" height="66.9879" filterUnits="userSpaceOnUse" color-interpolation-filters="sRGB">
<feFlood flood-opacity="0" result="BackgroundImageFix"/>
<feBlend mode="normal" in="SourceGraphic" in2="BackgroundImageFix" result="shape"/>
<feGaussianBlur stdDeviation="3.4" result="effect1_foregroundBlur_203_230"/>
</filter>
<filter id="filter3_f_203_230" x="469.228" y="259.16" width="49.4626" height="49.4625" filterUnits="userSpaceOnUse" color-interpolation-filters="sRGB">
<feFlood flood-opacity="0" result="BackgroundImageFix"/>
<feBlend mode="normal" in="SourceGraphic" in2="BackgroundImageFix" result="shape"/>
<feGaussianBlur stdDeviation="3.45" result="effect1_foregroundBlur_203_230"/>
</filter>
</defs>
</svg>
